<svg xmlns="http://www.w3.org/2000/svg" xmlns:xlink="http://www.w3.org/1999/xlink" width="147.852" height="45.234" viewBox="0 0 147.852 45.234">
  <defs>
    <linearGradient id="linear-gradient" x1="0.25" y1="0.933" x2="0.75" y2="0.067" gradientUnits="objectBoundingBox">
      <stop offset="0" stop-color="#91c03e"/>
      <stop offset="1" stop-color="#b5c734"/>
    </linearGradient>
    <linearGradient id="linear-gradient-2" x1="1" y1="0.785" x2="0.066" y2="0.831" xlink:href="#linear-gradient"/>
  </defs>
  <g id="Dilate-Logo-White" transform="translate(9 1.276)">
    <path id="Path_65" data-name="Path 65" d="M22.552,0A22.617,22.617,0,1,0,45.1,22.617,22.61,22.61,0,0,0,22.552,0Zm0,43.425A20.808,20.808,0,1,1,43.3,22.617,20.8,20.8,0,0,1,22.552,43.425Zm8.7-13.467a2.828,2.828,0,0,1,1.129-.164l.27.038.473.144a2.481,2.481,0,0,1,1.341,1.387,2.455,2.455,0,0,1-1.389,3.15,2.2,2.2,0,0,1-1.148.174,2.457,2.457,0,0,1-.676-4.73ZM13.8,15.278a2.107,2.107,0,0,1-1.11.173,2.456,2.456,0,0,1,.29-4.9l.241.019a3.023,3.023,0,0,1,.54.135,2.49,2.49,0,0,1,1.448,1.454A2.45,2.45,0,0,1,13.8,15.278ZM12.654,19.41a9.274,9.274,0,0,0,2.094-.963,10.831,10.831,0,0,0,3.483-3.429,7.82,7.82,0,0,0,.569-.982,13.016,13.016,0,0,0,.54-1.349,11.773,11.773,0,0,1,.357-1.165,2.323,2.323,0,0,1,2.364-1.32l.318.048.492.164a2.461,2.461,0,0,1,1.389,2.716,2.542,2.542,0,0,1-.251.694c-.669,1.141-1.575,1.037-2.808,1.541a12.038,12.038,0,0,0-2.981,1.811,10.45,10.45,0,0,0-2.808,3.757,12.506,12.506,0,0,1-1.032,2.639,2.46,2.46,0,0,1-3.792-3.131,3.731,3.731,0,0,1,2.065-1.031ZM13.966,29.4A4.1,4.1,0,0,0,16.233,28c1.047-1.459.808-3.753,1.312-5.731a6.051,6.051,0,0,1,2.8-3.911,8.766,8.766,0,0,1,2.817-.906l1.766-.2a6.325,6.325,0,0,0,3.136-1.031,4.021,4.021,0,0,0,1.225-2.032c.177-.58.171-1.329.386-1.9a2.25,2.25,0,0,1,2.345-1.406l.338.048.54.183A2.48,2.48,0,0,1,34.142,14.2a2.141,2.141,0,0,1-1.167,1.262c-.534.216-1.258.2-1.833.376A4.208,4.208,0,0,0,29,17.04a4.3,4.3,0,0,0-.762,1.435c-.408,1.3-.338,3.009-.685,4.373a6.132,6.132,0,0,1-2.654,3.93,8.678,8.678,0,0,1-2.991,1.011l-1.428.164-1.061.135a5.683,5.683,0,0,0-2.239.8,3.9,3.9,0,0,0-1.37,2.071c-.2.628-.2,1.46-.444,2.071a2.357,2.357,0,0,1-2.895,1.214,2.912,2.912,0,0,1-.878-.5,2.524,2.524,0,0,1-.328-3.313c.661-.9,1.55-.687,2.7-1.031Zm9.321.684a9.768,9.768,0,0,0,2.239-1.04,10.608,10.608,0,0,0,4.024-4.5,11.773,11.773,0,0,0,.473-1.214,11.536,11.536,0,0,1,.347-1.137,2.307,2.307,0,0,1,2.287-1.339l.376.048a2.584,2.584,0,0,1,.695.26,2.5,2.5,0,0,1,.965,3.313c-.662,1.129-1.537,1.042-2.769,1.532a11.467,11.467,0,0,0-2.914,1.734A10.274,10.274,0,0,0,26.133,31.5a11.263,11.263,0,0,0-.434,1.156,4.731,4.731,0,0,1-.637,1.57,2.46,2.46,0,0,1-3.754-3.179A3.685,3.685,0,0,1,23.287,30.083Z" transform="translate(-9 -1.276)" fill="url(#linear-gradient)"/>
    <path id="Union_2" data-name="Union 2" d="M-3185.864-13120.34a7.737,7.737,0,0,1-2.862-1.836,7.841,7.841,0,0,1-1.756-2.816,10.34,10.34,0,0,1-.6-3.586,10.2,10.2,0,0,1,.58-3.463,8,8,0,0,1,1.721-2.816,8.156,8.156,0,0,1,2.808-1.906,9.973,9.973,0,0,1,3.878-.7,9.768,9.768,0,0,1,3.6.629,8.67,8.67,0,0,1,2.74,1.683,7.278,7.278,0,0,1,2.368,5.387c0,.35-.006.722-.018,1.119a9.193,9.193,0,0,1-.157,1.365h-12.181a6.2,6.2,0,0,0,.229,1.451,3.061,3.061,0,0,0,.63,1.188,2.991,2.991,0,0,0,1.141.8,4.46,4.46,0,0,0,1.756.3,3.423,3.423,0,0,0,2.125-.557,2.935,2.935,0,0,0,1-1.365h5.266a5.833,5.833,0,0,1-.823,2.239,6.591,6.591,0,0,1-1.72,1.835,8.554,8.554,0,0,1-2.529,1.244,11.013,11.013,0,0,1-3.281.453A10.944,10.944,0,0,1-3185.864-13120.34Zm1.141-12.646a3.332,3.332,0,0,0-1.019,2.624h7.091a3.448,3.448,0,0,0-.966-2.589,3.431,3.431,0,0,0-2.508-.944A3.741,3.741,0,0,0-3184.722-13132.985Zm-34.986,12.578a8,8,0,0,1-2.615-1.854,8.219,8.219,0,0,1-1.685-2.8,10.651,10.651,0,0,1,0-7.033,8.246,8.246,0,0,1,1.685-2.8,7.978,7.978,0,0,1,2.615-1.854,8.114,8.114,0,0,1,3.352-.682,5.952,5.952,0,0,1,1.616.226,6.786,6.786,0,0,1,1.492.612,5.739,5.739,0,0,1,1.212.909,5.1,5.1,0,0,1,.841,1.087v-2.417h5.37v16.866h-5.37v-2.381a4.416,4.416,0,0,1-.841,1.1,5.5,5.5,0,0,1-1.212.877,7.366,7.366,0,0,1-1.492.593,5.879,5.879,0,0,1-1.616.228A8.161,8.161,0,0,1-3219.709-13120.407Zm6.128-4.218a3.982,3.982,0,0,0,1.263-.927,4.241,4.241,0,0,0,.826-1.362,4.681,4.681,0,0,0,.3-1.664,4.5,4.5,0,0,0-1.123-3.006,3.919,3.919,0,0,0-1.263-.947,4.075,4.075,0,0,0-3.3,0,3.92,3.92,0,0,0-1.263.947,4.5,4.5,0,0,0-1.124,3.006,4.686,4.686,0,0,0,.3,1.664,4.2,4.2,0,0,0,.826,1.362,3.978,3.978,0,0,0,1.263.927,3.791,3.791,0,0,0,1.649.35A3.794,3.794,0,0,0-3213.581-13124.625Zm-45.655,4.218a7.964,7.964,0,0,1-2.615-1.854,8.127,8.127,0,0,1-1.685-2.8,10.648,10.648,0,0,1,0-7.033,8.127,8.127,0,0,1,1.685-2.8,7.947,7.947,0,0,1,2.615-1.854,8.094,8.094,0,0,1,3.352-.682,5.914,5.914,0,0,1,1.613.226,6.719,6.719,0,0,1,1.492.612,5.589,5.589,0,0,1,1.213.909,5.15,5.15,0,0,1,.844,1.085v-10.04h5.37v24.488h-5.37v-2.378a4.433,4.433,0,0,1-.844,1.1,5.5,5.5,0,0,1-1.213.877,7.223,7.223,0,0,1-1.492.593,5.841,5.841,0,0,1-1.613.228A8.14,8.14,0,0,1-3259.236-13120.407Zm6.125-4.218a3.949,3.949,0,0,0,1.263-.927,4.2,4.2,0,0,0,.826-1.362,4.755,4.755,0,0,0,.3-1.664,4.5,4.5,0,0,0-1.126-3.006,3.886,3.886,0,0,0-1.263-.947,4.068,4.068,0,0,0-3.3,0,3.927,3.927,0,0,0-1.266.947,4.509,4.509,0,0,0-1.123,3.006,4.614,4.614,0,0,0,.3,1.664,4.183,4.183,0,0,0,.823,1.362,3.993,3.993,0,0,0,1.266.927,3.773,3.773,0,0,0,1.649.35A3.782,3.782,0,0,0-3253.111-13124.625Zm55.961,4.62a4.751,4.751,0,0,1-1.949-.717,4.217,4.217,0,0,1-1.474-1.786,7.761,7.761,0,0,1-.579-3.3v-7.208h-2.669v-3.99h2.669v-5h5.337v5h3.86v3.99h-3.86v6a5.11,5.11,0,0,0,.175,1.5,1.941,1.941,0,0,0,.49.856,1.641,1.641,0,0,0,.737.4,3.744,3.744,0,0,0,.913.1h1.019a4.212,4.212,0,0,0,.912-.089v4.093c-.4.071-.9.137-1.492.193s-1.293.089-2.089.089A15.571,15.571,0,0,1-3197.15-13120Zm-35.459-.143v-24.488h5.37v24.488Zm-9.058,0v-16.863h5.373v16.863Zm1.316-19.33a3.459,3.459,0,0,1-1.825-1.817,3.273,3.273,0,0,1-.264-1.312,3.277,3.277,0,0,1,.984-2.413,3.349,3.349,0,0,1,2.458-.98,3.526,3.526,0,0,1,2.476.98,3.153,3.153,0,0,1,.737,1.083,3.463,3.463,0,0,1,.265,1.33,3.269,3.269,0,0,1-.265,1.313,3.425,3.425,0,0,1-.737,1.083,3.32,3.32,0,0,1-1.105.734,3.559,3.559,0,0,1-1.37.265h-.043A3.352,3.352,0,0,1-3240.35-13139.478Z" transform="translate(3312.237 13153.688)" fill="url(#linear-gradient-2)"/>
  </g>
</svg>
