<svg xmlns="http://www.w3.org/2000/svg" width="100" height="100" viewBox="0 0 100 100"><path d="M91.39,76.36v-37a8.22,8.22,0,0,0-.83-3.6,8.43,8.43,0,0,0-3.89-3.89,8.22,8.22,0,0,0-3.6-.83H81.23V17.63a9.47,9.47,0,0,0-9.48-9.5l-41.6,0a9.49,9.49,0,0,0-9.49,9.48V31H16.94a8.26,8.26,0,0,0-3.61.83,8.43,8.43,0,0,0-3.89,3.89,8.22,8.22,0,0,0-.83,3.6v37H1.77v7.55a8.15,8.15,0,0,0,8.29,8H89.51a8.57,8.57,0,0,0,8.72-8.4V76.36ZM89.51,89.7H10.06A6,6,0,0,1,4,83.91V78.56H39.39v.36a4.05,4.05,0,0,0,4.11,4h13a4.05,4.05,0,0,0,4.11-4v-.36H96V83.5A6.38,6.38,0,0,1,89.51,89.7ZM30.13,64.59l5.41,0H45.78a19.19,19.19,0,0,1,1.69,7c0,.06,0,.12,0,.33a2.72,2.72,0,0,0,3.79,2.16l.41-.17,0,0,.09,0a28.24,28.24,0,0,0,9.82-9.22H71.72a9.51,9.51,0,0,0,9.5-9.49V33.24h1.84a6.13,6.13,0,0,1,6.12,6.12v37H58.41v2.56A1.85,1.85,0,0,1,56.5,80.7h-13a1.85,1.85,0,0,1-1.91-1.78V76.36H10.81v-37a6.13,6.13,0,0,1,6.13-6.12h3.72V55.1A9.5,9.5,0,0,0,30.13,64.59Zm0-54.29,41.59,0A7.29,7.29,0,0,1,79,17.63l0,37.51a7.31,7.31,0,0,1-7.3,7.29H66.3l-.4,0H61A1.1,1.1,0,0,0,60,63a26,26,0,0,1-9.45,9l-.06,0-.12.06a.54.54,0,0,1-.21,0,.57.57,0,0,1-.51-.33c0-.14,0-.28,0-.36A21.41,21.41,0,0,0,47.47,63a1.1,1.1,0,0,0-1-.61H30.14a7.3,7.3,0,0,1-7.29-7.29l0-37.52a7.27,7.27,0,0,1,7.28-7.28v0ZM41.5,37.69h3V53.8a1.1,1.1,0,0,0,1.1,1.1H54a1.1,1.1,0,0,0,1.1-1.1V37.69h4.51a1.09,1.09,0,0,0,1.08-.91c0-.05.28-1.69.52-3.81l.08-.8.08-.8c0-.5.09-1,.13-1.54a1.07,1.07,0,0,0-.29-.83,1.1,1.1,0,0,0-.81-.35H55.1V25.11c0-.14.44-.56.71-.56H60.4a1.1,1.1,0,0,0,1.1-1.1V16.34a1.11,1.11,0,0,0-1.1-1.11H54.17c-3.21,0-5.7.86-7.38,2.55a8.7,8.7,0,0,0-2.32,6.42v4.45h-3a1.1,1.1,0,0,0-1.1,1.1v6.84A1.1,1.1,0,0,0,41.5,37.69Zm5.17-7.94V24.12a6.49,6.49,0,0,1,1.68-4.79c1.25-1.25,3.21-1.89,5.82-1.89H59.3v4.91H55.81a3.06,3.06,0,0,0-2.91,2.74v4.66a1.1,1.1,0,0,0,1.1,1.1h5.19l-.13,1.26-.08.8c-.13,1.05-.25,2-.34,2.58H54a1.11,1.11,0,0,0-1.11,1.1V52.7h-6.2V36.59a1.1,1.1,0,0,0-1.1-1.1h-3V30.85h3A1.1,1.1,0,0,0,46.67,29.75Z" fill="#161616"/></svg>