<svg xmlns="http://www.w3.org/2000/svg" width="190" height="133.769" viewBox="0 0 190 133.769"><path d="M122.927,73.532c-6.906,6.385-16.38,10.091-27.63,10.091A41.812,41.812,0,0,1,95.3,0,39.975,39.975,0,0,1,123.19,10.9L111.242,22.881A22.551,22.551,0,0,0,95.3,16.629,24.87,24.87,0,0,0,71.954,33.861a25.085,25.085,0,0,0,0,15.9A25.125,25.125,0,0,0,109.4,63.005a18.749,18.749,0,0,0,7.872-12.641H95.416V34.209h38.963a49.347,49.347,0,0,1,.951,8.554c0,12.726-4.531,23.487-12.4,30.769M20.294,116.313H10.327v2.672H17.64a7.959,7.959,0,0,1-.511,2.089,5.849,5.849,0,0,1-1.115,1.795,7.3,7.3,0,0,1-2.236,1.593,7.76,7.76,0,0,1-3.235.6,7.732,7.732,0,0,1-3.787-.98,7.467,7.467,0,0,1-2.831-2.763,8.57,8.57,0,0,1,0-8.254A7.488,7.488,0,0,1,6.742,110.3a7.708,7.708,0,0,1,3.8-.98,7.792,7.792,0,0,1,3.061.6,5.908,5.908,0,0,1,2.316,1.717l.168.209,2.041-2.043-.151-.17a8.546,8.546,0,0,0-3.26-2.25,11.155,11.155,0,0,0-4.2-.792,10.408,10.408,0,0,0-9.1,5.214,10.926,10.926,0,0,0,0,10.763,10.408,10.408,0,0,0,9.1,5.214,9.719,9.719,0,0,0,7.454-3.034,8.178,8.178,0,0,0,1.911-3.125A11.363,11.363,0,0,0,20.475,118a8.508,8.508,0,0,0-.143-1.483Zm16.041-.178a8.466,8.466,0,0,1,0,7.818,7.243,7.243,0,0,1-2.678,2.805,7.757,7.757,0,0,1-7.725,0,7.252,7.252,0,0,1-2.676-2.805,8.466,8.466,0,0,1,0-7.818,7.278,7.278,0,0,1,2.676-2.805,7.757,7.757,0,0,1,7.725,0,7.27,7.27,0,0,1,2.678,2.805m-2.529,6.643a6.1,6.1,0,0,0,0-5.468,4.577,4.577,0,0,0-1.71-1.775,4.513,4.513,0,0,0-2.3-.618,4.568,4.568,0,0,0-4.039,2.393,6.086,6.086,0,0,0,0,5.468,4.568,4.568,0,0,0,1.721,1.777,4.559,4.559,0,0,0,6.327-1.777m19-6.643a8.466,8.466,0,0,1,0,7.818,7.243,7.243,0,0,1-2.678,2.805,7.754,7.754,0,0,1-7.723,0,7.257,7.257,0,0,1-2.678-2.805,8.466,8.466,0,0,1,0-7.818,7.283,7.283,0,0,1,2.678-2.805,7.754,7.754,0,0,1,7.723,0,7.27,7.27,0,0,1,2.678,2.805m-2.529,6.643a6.086,6.086,0,0,0,0-5.468,4.577,4.577,0,0,0-1.71-1.775,4.5,4.5,0,0,0-2.3-.618,4.568,4.568,0,0,0-4.039,2.393,6.086,6.086,0,0,0,0,5.468,4.56,4.56,0,0,0,1.723,1.777,4.633,4.633,0,0,0,4.616,0,4.582,4.582,0,0,0,1.71-1.777m16.511-10.035h2.726v13.807a7.086,7.086,0,0,1-1.957,5.369,8.046,8.046,0,0,1-9.375.643,5.937,5.937,0,0,1-2.261-2.916l-.072-.211,2.567-1.1.091.234a4,4,0,0,0,1.477,1.868,4.2,4.2,0,0,0,2.449.718,4.347,4.347,0,0,0,3.22-1.148,4.549,4.549,0,0,0,1.135-3.317V125.7a5.682,5.682,0,0,1-1.706,1.38,6.242,6.242,0,0,1-2.98.7,6.387,6.387,0,0,1-3.464-.989,6.976,6.976,0,0,1-2.482-2.753,9.2,9.2,0,0,1,0-7.99,6.953,6.953,0,0,1,2.484-2.765,6.363,6.363,0,0,1,3.464-.991,6.232,6.232,0,0,1,2.98.707,5.526,5.526,0,0,1,1.706,1.4Zm-2.168,2.769a4.29,4.29,0,0,0-4.383.015,4.363,4.363,0,0,0-1.588,1.76,6,6,0,0,0-.6,2.757,6.1,6.1,0,0,0,.6,2.774,4.125,4.125,0,0,0,3.785,2.354,4.067,4.067,0,0,0,2.184-.61,4.383,4.383,0,0,0,1.574-1.762,5.984,5.984,0,0,0,.6-2.757,6.05,6.05,0,0,0-.6-2.784,4.29,4.29,0,0,0-1.572-1.748m7.87,11.836h2.836V107.041H72.493Zm18.331-11.425a8.535,8.535,0,0,1,.842,3.845,2.943,2.943,0,0,1-.093.784l-.048.178H80.442a5.252,5.252,0,0,0,.72,2.343,4.286,4.286,0,0,0,1.665,1.574,4.55,4.55,0,0,0,2.118.527,4.337,4.337,0,0,0,3.971-2.424l.112-.2,2.422,1.175-.118.223a7.385,7.385,0,0,1-2.561,2.8,7.713,7.713,0,0,1-7.661.031,6.987,6.987,0,0,1-2.594-2.765,8.364,8.364,0,0,1-.927-3.948,8.719,8.719,0,0,1,.867-3.872,7.1,7.1,0,0,1,2.48-2.836,6.643,6.643,0,0,1,3.733-1.065,7.045,7.045,0,0,1,3.725.964,6.426,6.426,0,0,1,2.43,2.658M82,115.916a4.81,4.81,0,0,0-1.369,2.391h8.039a4.51,4.51,0,0,0-.449-1.423,3.539,3.539,0,0,0-1.309-1.4,4.159,4.159,0,0,0-2.267-.571,3.762,3.762,0,0,0-2.645,1m30.159-5.925a6.1,6.1,0,0,1,0,6.32,6.125,6.125,0,0,1-2.347,2.174,6.717,6.717,0,0,1-3.187.776h-4.1v8.085H99.7V107.039h6.916a6.739,6.739,0,0,1,3.187.776,6.115,6.115,0,0,1,2.347,2.176m-2.422,4.784a3.222,3.222,0,0,0,0-3.249,3.593,3.593,0,0,0-1.233-1.274,3.4,3.4,0,0,0-1.822-.488h-4.161v6.771h4.161a3.37,3.37,0,0,0,1.822-.49,3.551,3.551,0,0,0,1.233-1.27m16-.9a5.548,5.548,0,0,1,1.725,4.287v9.187h-2.726V125.7a5.662,5.662,0,0,1-4.438,2.091,6.337,6.337,0,0,1-2.875-.635,4.825,4.825,0,0,1-1.983-1.762,4.759,4.759,0,0,1-.7-2.552,4.379,4.379,0,0,1,1.785-3.7,7.218,7.218,0,0,1,4.409-1.307,9.876,9.876,0,0,1,2.426.285,7.575,7.575,0,0,1,1.375.467v-.453a2.924,2.924,0,0,0-1.024-2.35,3.9,3.9,0,0,0-2.637-.9,4.486,4.486,0,0,0-2.077.486,3.745,3.745,0,0,0-1.483,1.34l-.141.221-2.163-1.622.126-.19a5.933,5.933,0,0,1,2.378-2.077,7.454,7.454,0,0,1,3.334-.745,6.7,6.7,0,0,1,4.689,1.574m-3.123,10.78a4.423,4.423,0,0,0,1.547-1.549,4.066,4.066,0,0,0,.573-1.988,5.79,5.79,0,0,0-1.456-.62,7.3,7.3,0,0,0-1.983-.265,4.325,4.325,0,0,0-2.767.747,2.313,2.313,0,0,0-.894,1.89,2.065,2.065,0,0,0,.8,1.694,3.231,3.231,0,0,0,2.089.666,4.052,4.052,0,0,0,2.095-.575m14.13-12.078a5.359,5.359,0,0,0-2.724.726,4.152,4.152,0,0,0-1.435,1.359v-1.7h-2.728v14.6h2.838V119.49a4.128,4.128,0,0,1,1.055-2.935,3.576,3.576,0,0,1,2.743-1.113,5.534,5.534,0,0,1,1.218.1l.3.07V112.7l-.2-.039a5.636,5.636,0,0,0-1.071-.087m9.663,12.542a1.64,1.64,0,0,1-1.334-.531,2.628,2.628,0,0,1-.391-1.605v-7.624h3.433v-2.616h-3.433v-3.986h-2.836v3.986H139.38v2.616h2.463v8.186a4.941,4.941,0,0,0,.294,1.808,3.726,3.726,0,0,0,.887,1.326,3.885,3.885,0,0,0,1.313.813,4.738,4.738,0,0,0,1.679.3,6.026,6.026,0,0,0,1.138-.087,3.838,3.838,0,0,0,.9-.294l.139-.064V124.45l-.37.234a2.639,2.639,0,0,1-1.421.434M157.477,112.3a5.626,5.626,0,0,0-2.835.767,5.412,5.412,0,0,0-1.6,1.355v-1.679h-2.728v14.6h2.838v-8.188a4.769,4.769,0,0,1,.474-2.07,4.055,4.055,0,0,1,1.32-1.582,3.208,3.208,0,0,1,1.894-.591,3.391,3.391,0,0,1,2.409.817,3.566,3.566,0,0,1,.867,2.676v8.937h2.836v-9.3a6.032,6.032,0,0,0-1.406-4.192,5.238,5.238,0,0,0-4.07-1.561m20.856,3.622a8.532,8.532,0,0,1,.842,3.845,3.042,3.042,0,0,1-.089.782l-.05.18H167.951a5.213,5.213,0,0,0,.724,2.343,4.255,4.255,0,0,0,1.663,1.574,4.543,4.543,0,0,0,2.116.527,4.332,4.332,0,0,0,3.969-2.424l.114-.2,2.422,1.175-.116.223a7.422,7.422,0,0,1-2.563,2.8,7.713,7.713,0,0,1-7.661.031,7,7,0,0,1-2.594-2.765,8.375,8.375,0,0,1-.927-3.948,8.688,8.688,0,0,1,.869-3.872,7.1,7.1,0,0,1,2.476-2.836,6.662,6.662,0,0,1,3.735-1.065,7.045,7.045,0,0,1,3.725.964,6.4,6.4,0,0,1,2.43,2.658m-8.829-.006a4.825,4.825,0,0,0-1.369,2.391h8.041a4.567,4.567,0,0,0-.451-1.423,3.518,3.518,0,0,0-1.311-1.4,4.148,4.148,0,0,0-2.265-.571,3.762,3.762,0,0,0-2.645,1m20.351-3.291a4.39,4.39,0,0,0-1.758-.325,4.773,4.773,0,0,0-2.625.815,4.391,4.391,0,0,0-1.34,1.322v-1.694H181.4v14.6h2.838V119.2a4.288,4.288,0,0,1,.486-2.012,3.918,3.918,0,0,1,1.291-1.479,3.04,3.04,0,0,1,1.744-.54,4.218,4.218,0,0,1,1.888.418l.349.174v-3.071Z" fill="#fff"/></svg>