<svg xmlns="http://www.w3.org/2000/svg" width="190" height="65.372" viewBox="0 0 190 65.372"><path d="M55.261,6.456a9.462,9.462,0,0,1,.14,1.81q0,23.615,0,47.231a9.165,9.165,0,0,1-1.318,5.21,7.567,7.567,0,0,1-13.438-1.62,8.572,8.572,0,0,1-.538-2.791c-.009-.247-.012-.495-.012-.743q0-23.857-.014-47.713a7.9,7.9,0,0,1,5.468-7.5c.483-.152.986-.2,1.471-.339h1.486c.431.095.871.161,1.292.289a7.461,7.461,0,0,1,5.463,6.167M7.942,48.814A7.689,7.689,0,0,0,.254,54.489,7.47,7.47,0,0,1,0,55.553V57.41c.1.049.066.149.081.229a7.662,7.662,0,1,0,7.861-8.825M26.891,24.446a7.784,7.784,0,0,0-6.842,7.676c-.011,3.961,0,7.921,0,11.882h0q0,6.034,0,12.068a8.417,8.417,0,0,0,.533,2.979,7.212,7.212,0,0,0,6.207,5,7.2,7.2,0,0,0,7.015-2.995,8.771,8.771,0,0,0,1.547-5.4q0-11.566,0-23.133a9.968,9.968,0,0,0-.22-2.1,7.579,7.579,0,0,0-8.246-5.979m58.4,1.128c6.079-1.846,8.7-7.321,7.957-13.225-.034-.272-.13-.337-.392-.335-1.882.012-3.763.006-5.645.006-1.857,0-3.714.009-5.57-.008-.355,0-.492.057-.476.455.036.89.028,1.782,0,2.673-.01.349.071.457.44.455,2.575-.018,5.15-.009,7.725-.01.188,0,.38-.041.326.273A7.579,7.579,0,0,1,87.759,20c-2.808,2.937-7.565,3.254-10.8,1.612A9.544,9.544,0,0,1,72.1,10.73a9.3,9.3,0,0,1,9.15-7.1A8.91,8.91,0,0,1,87.289,5.9c.271.239.4.213.633-.034.646-.683,1.318-1.342,1.993-2,.175-.17.174-.257-.01-.424A12.53,12.53,0,0,0,78.48.349a12.608,12.608,0,0,0-7.419,4.4A12.339,12.339,0,0,0,68.581,17.08a13.3,13.3,0,0,0,16.713,8.494M131.213,17.9a8.372,8.372,0,0,1,6.392-8.334,6.067,6.067,0,0,1,5.968,1.535c.051.05.094.136.177.107.11-.039.063-.148.064-.226.006-.3.009-.594,0-.891,0-.16.055-.217.215-.217q1.541.007,3.082,0c.163,0,.222.065.211.22-.006.086,0,.173,0,.26v7.8h-.02c0,2.574.033,5.148-.013,7.721a8.752,8.752,0,0,1-1.147,4.254,6.857,6.857,0,0,1-4.893,3.4,8.129,8.129,0,0,1-9.239-4.463c-.111-.227-.087-.336.164-.435q1.309-.518,2.6-1.081c.253-.111.351-.056.474.182a4.425,4.425,0,0,0,3.425,2.611c2.461.318,4.676-.788,5.072-3.792a17.388,17.388,0,0,0,.068-2.038c0-.068.032-.158-.048-.2s-.135.034-.181.086c-1.862,2.065-5.217,2.279-7.724.951a8.209,8.209,0,0,1-4.649-7.444m3.688-.218a5.756,5.756,0,0,0,.673,2.762,4.433,4.433,0,0,0,7.443.7,5.817,5.817,0,0,0,.08-6.611,4.264,4.264,0,0,0-5.755-1.232,5.045,5.045,0,0,0-2.442,4.386M87.916,58.122c.152.4.152.4-.288.4-.78,0-1.561-.024-2.339.011-.37.017-.5-.126-.614-.45-.62-1.8-1.269-3.587-1.894-5.384a.415.415,0,0,0-.467-.338q-4.438.016-8.876,0a.393.393,0,0,0-.445.315c-.65,1.84-1.32,3.674-1.971,5.514-.086.243-.188.348-.466.34-.779-.023-1.56-.008-2.339-.008-.549,0-.547,0-.36-.5q1.815-4.821,3.629-9.643,2.3-6.105,4.59-12.212a.44.44,0,0,1,.506-.352c.432.027.866.007,1.3.007.409,0,.818.018,1.225-.006a.482.482,0,0,1,.562.375q2.864,7.654,5.753,15.3l2.5,6.625M81.6,49.67a.632.632,0,0,0-.007-.122q-1.8-4.96-3.609-9.918c-.027-.074-.032-.195-.148-.179-.1.013-.1.128-.131.2q-1.758,4.857-3.517,9.715c-.1.281,0,.3.235.3,1.645-.006,3.29,0,4.935,0Zm39.857-23.506A8.306,8.306,0,0,1,113,17.775a8.445,8.445,0,0,1,16.889-.027,8.3,8.3,0,0,1-8.431,8.416m4.671-9.251a4.761,4.761,0,0,0-4.676-4.233,4.382,4.382,0,0,0-2.91,1.023,5.135,5.135,0,0,0-1.683,5.36,4.555,4.555,0,0,0,3.387,3.627,4.367,4.367,0,0,0,4.566-1.313,5.245,5.245,0,0,0,1.317-4.465m-31.333.8a8.444,8.444,0,0,1,16.887.054A8.444,8.444,0,0,1,94.8,17.715m4.48,2.895a4.606,4.606,0,0,0,7.675.366,5.425,5.425,0,0,0,.98-4.036,4.769,4.769,0,0,0-4.69-4.26,4.513,4.513,0,0,0-2.853.979,5.431,5.431,0,0,0-1.111,6.951m55.49-1.557a8.252,8.252,0,0,1,2.98-8.027,7.481,7.481,0,0,1,11.281,2.115,17.717,17.717,0,0,1,1.073,2.317c.121.286-.114.277-.247.333q-4.072,1.692-8.148,3.374c-.833.345-1.662.7-2.5,1.03-.245.1-.241.187-.128.4a4.6,4.6,0,0,0,6.976,1.178,5.877,5.877,0,0,0,.949-1.038c.109-.158.192-.175.353-.065q1.211.824,2.439,1.624c.178.116.2.208.07.376a8.374,8.374,0,0,1-5.538,3.407,8.711,8.711,0,0,1-1.331.087,8.086,8.086,0,0,1-8.228-7.106m3.544-1.857c0,.323.128.269.333.184q3.4-1.418,6.8-2.829c.428-.178.441-.2.162-.59a3.421,3.421,0,0,0-2.863-1.357c-.2.016-.4.015-.6.05a4.661,4.661,0,0,0-3.84,4.541m-38.883,35.61c.016,1.781,0,3.563.011,5.345,0,.317-.093.392-.394.383-.692-.022-1.386-.018-2.079,0-.256.006-.343-.065-.335-.329.019-.6.006-1.2.006-1.81-.2.034-.238.165-.3.259-2.455,3.469-7.4,2.8-9.515.293a4.978,4.978,0,0,1,1.871-7.767,8.641,8.641,0,0,1,3.611-.7,9.108,9.108,0,0,1,4.076.787c.251.122.257,0,.264-.194a3.824,3.824,0,0,0-3.322-3.913,4.41,4.41,0,0,0-4.4,1.789c-.119.158-.2.2-.38.079-.694-.452-1.393-.9-2.106-1.319-.241-.143-.189-.245-.057-.418a6.713,6.713,0,0,1,4.33-2.633,8.714,8.714,0,0,1,5.166.5,5.654,5.654,0,0,1,3.492,4.91c.156,1.578.048,3.165.062,4.748m-3.1-1.161a6.521,6.521,0,0,0-3.315-.848,4.958,4.958,0,0,0-3.375,1.049,2.415,2.415,0,0,0,.149,3.937,3.834,3.834,0,0,0,3.3.506,4.84,4.84,0,0,0,3.547-4.077.548.548,0,0,0-.3-.566m-13.021-2.7a10.339,10.339,0,0,0-.142-1.81,5.118,5.118,0,0,0-2.568-3.882,6.355,6.355,0,0,0-7.4.96,7.686,7.686,0,0,0-.763.943l-.1-.025c0-.612-.009-1.225,0-1.837.005-.227-.06-.3-.291-.293-.743.014-1.486.017-2.228,0-.263-.006-.3.1-.3.324q.007,7.445,0,14.89c0,.276.1.323.344.319.73-.013,1.462-.025,2.191,0,.351.014.422-.1.421-.432-.01-2.834-.032-5.669.009-8.5a4.282,4.282,0,0,1,4.976-4.371,3,3,0,0,1,2.589,1.946,5.479,5.479,0,0,1,.319,2.039c0,2.983,0,5.966-.008,8.949,0,.294.078.378.37.369.717-.021,1.436-.023,2.154,0,.326.01.437-.063.435-.418-.016-3.057-.01-6.115-.008-9.172m86.54,4.166A4.332,4.332,0,0,0,187.2,50.2a24.786,24.786,0,0,0-3.973-1.181,6.914,6.914,0,0,1-1.806-.65,1.465,1.465,0,0,1-.047-2.676,4.2,4.2,0,0,1,5.655,1.257c.122.2.216.206.4.125.67-.288,1.341-.574,2.022-.833.279-.106.278-.226.16-.463a5.526,5.526,0,0,0-2.358-2.4,7.723,7.723,0,0,0-4.963-.79,6.393,6.393,0,0,0-3.383,1.479,4.062,4.062,0,0,0-.758,5.192,5.168,5.168,0,0,0,2.469,1.825,35.171,35.171,0,0,0,4,1.108,4.087,4.087,0,0,1,1.891.973,1.554,1.554,0,0,1-.164,2.475,4.112,4.112,0,0,1-3.527.668,4.324,4.324,0,0,1-2.974-2.527c-.121-.249-.224-.29-.472-.176-.595.273-1.2.517-1.807.772-.491.208-.5.212-.25.707a6.818,6.818,0,0,0,6.141,3.951,7.412,7.412,0,0,0,4.716-1.358,4.174,4.174,0,0,0,1.685-4.577M142.332,43q-1.206.027-2.413,0a.434.434,0,0,0-.485.328q-1.789,4.474-3.6,8.938c-.252.625-.508,1.249-.766,1.885-.152-.094-.165-.225-.209-.332q-.919-2.207-1.831-4.416-1.263-3.047-2.529-6.093c-.052-.125-.058-.3-.27-.3-.986,0-1.972,0-2.964,0a1.079,1.079,0,0,0,.157.481q3.015,6.833,6.041,13.661a.858.858,0,0,1-.006.792c-1.1,2.35-2.184,4.708-3.272,7.064-.165.358-.164.36.246.36.73,0,1.461-.017,2.19.008a.488.488,0,0,0,.544-.355q2.776-6.412,5.571-12.815c1.282-2.945,2.558-5.893,3.852-8.833.15-.341.062-.377-.257-.37m32.992,11.447q-1.065-.43-2.114-.9c-.2-.091-.274-.024-.357.151a4.657,4.657,0,0,1-1.444,1.808,4.793,4.793,0,0,1-6.644-1.059,6.118,6.118,0,0,1-1.081-4.783,5.529,5.529,0,0,1,1.949-3.48,4.572,4.572,0,0,1,6.984,1.454c.214.445.225.441.689.247.615-.257,1.225-.53,1.849-.765.279-.105.31-.212.179-.472a6.96,6.96,0,0,0-5.923-4.107,7.592,7.592,0,0,0-6.862,2.763,8.472,8.472,0,0,0-1.733,6.942,7.737,7.737,0,0,0,7.877,6.8,7.244,7.244,0,0,0,1.6-.154,6.912,6.912,0,0,0,5.155-4.049c.088-.19.1-.3-.129-.391M149.518,6.367q0,9.426-.006,18.853c0,.321.057.451.417.44q1.391-.042,2.783,0c.345.01.4-.106.4-.419q-.015-5.956-.007-11.913t.006-11.913c0-.3-.057-.406-.38-.4-.952.023-1.905.016-2.858,0-.258,0-.367.039-.365.337.016,1.67.007,3.34.007,5.01m3.1,49.7c-.079-.248-.2-.271-.405-.179a2.49,2.49,0,0,1-.76.157,1.884,1.884,0,0,1-2.11-1.5,4.578,4.578,0,0,1-.115-1.067c0-2.488.007-4.976-.007-7.463,0-.309.1-.361.378-.358,1.027.015,2.055-.006,3.082.013.3.006.376-.093.367-.378-.019-.655-.018-1.312,0-1.968.007-.262-.076-.334-.334-.331-1.04.014-2.08,0-3.119.012-.281,0-.378-.057-.374-.361.018-1.349,0-2.7.014-4.047,0-.268-.053-.365-.343-.356-.73.022-1.461.026-2.191,0-.327-.012-.38.1-.377.4.016,1.312,0,2.624.014,3.936,0,.32-.054.452-.414.434-.679-.033-1.361,0-2.042-.013-.209,0-.311.028-.305.277q.026,1.058,0,2.116c-.006.249.1.281.307.278.681-.01,1.362.013,2.042-.011.314-.011.42.056.414.4-.023,1.423-.009,2.847-.009,4.27h.006c0,1.423-.036,2.848.009,4.27a3.952,3.952,0,0,0,2.567,3.823,6.784,6.784,0,0,0,4.3.022c.208-.052.156-.168.108-.306-.241-.688-.486-1.375-.707-2.069m-27.087-9.644q0-5.1.006-10.208c0-.285-.066-.384-.365-.374-.7.022-1.411.027-2.116,0-.354-.014-.456.079-.454.444.015,3.625.009,7.251.009,10.876q0,.668,0,1.336c0,3.217,0,6.434-.007,9.651,0,.311.083.4.391.387.7-.023,1.411-.024,2.116,0,.33.012.431-.07.43-.419-.014-3.9-.009-7.8-.009-11.692m33.3,4.38c0-2.474-.006-4.947.007-7.421,0-.311-.085-.4-.391-.385-.729.023-1.46.021-2.189,0-.277-.008-.352.067-.35.347.013,1.818.007,3.636.007,5.454,0,3.117,0,6.234-.008,9.35,0,.311.079.4.388.385q1.075-.036,2.152,0c.305.01.393-.071.392-.384-.013-2.449-.007-4.9-.007-7.347m-1.47-15.209a2.066,2.066,0,0,0,.012,4.131,2.066,2.066,0,0,0-.012-4.131" fill="#fff"/></svg>