<svg xmlns="http://www.w3.org/2000/svg" width="100" height="70.427" viewBox="0 0 100 70.427"><g transform="translate(-4.33 -2.999)"><path d="M74.644,25.194a26.61,26.61,0,0,0-.5-4.494H53.63v8.459H65.136a9.835,9.835,0,0,1-4.148,6.655v5.575h7.134c4.148-3.832,6.533-9.5,6.533-16.2Z" transform="translate(0.926 0.332)" fill="#0081c6"/><path d="M53.938,46.555a21.014,21.014,0,0,0,14.543-5.32l-7.134-5.544a13.249,13.249,0,0,1-19.71-6.971H34.33v5.7A21.921,21.921,0,0,0,53.938,46.545Z" transform="translate(0.561 0.482)" fill="#00ae57"/><path d="M41.691,28.994a13.157,13.157,0,0,1,0-8.367v-5.7H34.374a22.085,22.085,0,0,0,0,19.761l7.317-5.7Z" transform="translate(0.522 0.224)" fill="#fbab18"/><path d="M53.938,11.785a11.832,11.832,0,0,1,8.387,3.292l6.319-6.308A21.055,21.055,0,0,0,53.938,3,21.92,21.92,0,0,0,34.332,15.124l7.316,5.7a13.106,13.106,0,0,1,12.291-9.07Z" transform="translate(0.561)" fill="#f04931"/><path d="M7.171,68.391A5.279,5.279,0,0,1,5.2,66.424,5.432,5.432,0,0,1,9.882,58.21a5.656,5.656,0,0,1,2.161.408,4.3,4.3,0,0,1,1.671,1.152l-.887.887a3.2,3.2,0,0,0-1.274-.938,4.076,4.076,0,0,0-1.661-.326A4.077,4.077,0,0,0,6.305,61.43a4.3,4.3,0,0,0-.581,2.242A4.24,4.24,0,0,0,6.305,65.9a3.944,3.944,0,0,0,1.539,1.5,4.158,4.158,0,0,0,2.038.54,4.291,4.291,0,0,0,1.763-.326,3.893,3.893,0,0,0,1.213-.876,2.955,2.955,0,0,0,.611-1.019,4.484,4.484,0,0,0,.3-1.274H9.913V63.326h5.014A5.2,5.2,0,0,1,15,64.08a5.88,5.88,0,0,1-.306,1.875,4.2,4.2,0,0,1-1.019,1.6A4.994,4.994,0,0,1,9.882,69.1a5.31,5.31,0,0,1-2.711-.713Z" transform="translate(0.002 1.037)" fill="#606469"/><path d="M9.884,69.21a5.422,5.422,0,0,1-2.772-.734h0a5.452,5.452,0,0,1-2.038-2.038,5.768,5.768,0,0,1,0-5.666,5.493,5.493,0,0,1,4.79-2.752,5.891,5.891,0,0,1,2.212.418,4.535,4.535,0,0,1,1.712,1.192l.082.082-1.05,1.141-.092-.112a3.2,3.2,0,0,0-1.213-.907,4.291,4.291,0,0,0-1.62-.316,4.005,4.005,0,0,0-2.038.52A3.832,3.832,0,0,0,6.378,61.5a4.484,4.484,0,0,0,0,4.341,3.924,3.924,0,0,0,1.488,1.457,4.077,4.077,0,0,0,1.987.51,3.965,3.965,0,0,0,1.7-.316,3.822,3.822,0,0,0,1.182-.836,3.18,3.18,0,0,0,.591-.948,4.076,4.076,0,0,0,.265-1.1H9.782V63.2h5.249v.112a4.291,4.291,0,0,1,.071.775A6.115,6.115,0,0,1,14.8,66a4.341,4.341,0,0,1-1.019,1.641A5.1,5.1,0,0,1,9.884,69.21Zm0-10.9a5.238,5.238,0,0,0-4.566,2.65,5.381,5.381,0,0,0,1.916,7.338h0a5.269,5.269,0,0,0,2.65.693,4.871,4.871,0,0,0,3.74-1.519,4.138,4.138,0,0,0,.948-1.549,5.626,5.626,0,0,0,.3-1.834,3.506,3.506,0,0,0-.051-.632h-4.78v.9H13.91v.143a4.78,4.78,0,0,1-.3,1.315,3.465,3.465,0,0,1-.642,1.019,4.138,4.138,0,0,1-1.254.9,4.372,4.372,0,0,1-1.814.336,4.26,4.26,0,0,1-2.11-.55,4.077,4.077,0,0,1-1.59-1.539,4.78,4.78,0,0,1,0-4.606,4.27,4.27,0,0,1,3.7-2.1,4.352,4.352,0,0,1,1.712.336,3.485,3.485,0,0,1,1.233.876l.7-.713a4.413,4.413,0,0,0-1.539-1.019,5.687,5.687,0,0,0-2.13-.408Z" transform="translate(0 1.033)" fill="#606469"/><path d="M17.845,68.528a3.679,3.679,0,0,1-1.366-1.417,4.321,4.321,0,0,1,0-3.995,3.679,3.679,0,0,1,1.366-1.427,3.913,3.913,0,0,1,3.934,0,3.679,3.679,0,0,1,1.355,1.417,4.321,4.321,0,0,1,0,4.005,3.679,3.679,0,0,1-1.366,1.427,3.985,3.985,0,0,1-3.934,0Zm3.251-.938a2.527,2.527,0,0,0,.948-1.019,3.322,3.322,0,0,0,0-3,2.476,2.476,0,0,0-2.222-1.325,2.568,2.568,0,0,0-1.284.336,2.629,2.629,0,0,0-.958,1.019,3.322,3.322,0,0,0,0,3,2.629,2.629,0,0,0,.958,1.019,2.568,2.568,0,0,0,1.284.336A2.538,2.538,0,0,0,21.1,67.591Z" transform="translate(0.223 1.093)" fill="#606469"/><path d="M19.814,69.152a3.934,3.934,0,0,1-2.038-.54,3.842,3.842,0,0,1-1.406-1.478,4.494,4.494,0,0,1,0-4.077,3.842,3.842,0,0,1,1.406-1.478,4.077,4.077,0,0,1,4.077,0,3.873,3.873,0,0,1,1.406,1.457,4.494,4.494,0,0,1,0,4.077,3.842,3.842,0,0,1-3.445,2.038Zm0-7.9a3.649,3.649,0,0,0-1.906.51,3.557,3.557,0,0,0-1.315,1.376,4.229,4.229,0,0,0,0,3.873,3.557,3.557,0,0,0,1.315,1.376h0a3.733,3.733,0,0,0,5.126-1.376,4.229,4.229,0,0,0,0-3.873,3.618,3.618,0,0,0-3.22-1.885Zm0,6.777a2.711,2.711,0,0,1-1.345-.357,2.752,2.752,0,0,1-1.019-1.019,3.5,3.5,0,0,1,0-3.119,2.752,2.752,0,0,1,1.019-1.019,2.65,2.65,0,0,1,3.679,1.019,3.5,3.5,0,0,1,0,3.119,2.65,2.65,0,0,1-1.019,1.019h0a2.65,2.65,0,0,1-1.315.387Zm0-5.656a2.4,2.4,0,0,0-2.13,1.264,3.241,3.241,0,0,0,0,2.874,2.364,2.364,0,0,0,.907.938,2.466,2.466,0,0,0,2.436,0h0a2.415,2.415,0,0,0,.9-.938,3.241,3.241,0,0,0,0-2.874,2.375,2.375,0,0,0-2.11-1.264Z" transform="translate(0.221 1.091)" fill="#606469"/><path d="M26.354,68.528a3.608,3.608,0,0,1-1.345-1.417,4.321,4.321,0,0,1,0-3.995,3.608,3.608,0,0,1,1.366-1.427,3.913,3.913,0,0,1,3.934,0,3.648,3.648,0,0,1,1.355,1.427,4.321,4.321,0,0,1,0,3.995,3.648,3.648,0,0,1-1.355,1.427,3.985,3.985,0,0,1-3.934,0Zm3.241-.938a2.68,2.68,0,0,0,.948-1.019,3.322,3.322,0,0,0,0-3,2.68,2.68,0,0,0-.948-1.019,2.6,2.6,0,0,0-2.558,0,2.629,2.629,0,0,0-.958,1.019,3.322,3.322,0,0,0,0,3,2.629,2.629,0,0,0,.958,1.019A2.6,2.6,0,0,0,29.6,67.591Z" transform="translate(0.38 1.093)" fill="#606469"/><path d="M28.324,69.152a3.934,3.934,0,0,1-2.038-.54,3.842,3.842,0,0,1-1.406-1.478,4.494,4.494,0,0,1,0-4.077,3.842,3.842,0,0,1,1.406-1.478,4.077,4.077,0,0,1,4.077,0,3.771,3.771,0,0,1,1.4,1.457,4.413,4.413,0,0,1,0,4.077,3.771,3.771,0,0,1-1.406,1.478,3.924,3.924,0,0,1-2.028.561Zm0-7.9a3.649,3.649,0,0,0-1.906.51A3.557,3.557,0,0,0,25.1,63.14a4.229,4.229,0,0,0,0,3.873,3.557,3.557,0,0,0,1.315,1.376h0a3.8,3.8,0,0,0,3.8,0,3.485,3.485,0,0,0,1.315-1.376,4.158,4.158,0,0,0,0-3.873,3.485,3.485,0,0,0-1.315-1.376,3.618,3.618,0,0,0-1.9-.479Zm0,6.777a2.68,2.68,0,0,1-1.345-.357,2.752,2.752,0,0,1-1.019-1.019,3.5,3.5,0,0,1,0-3.119,2.752,2.752,0,0,1,1.019-1.019,2.7,2.7,0,0,1,2.68,0,2.8,2.8,0,0,1,1.019,1.019,3.5,3.5,0,0,1,0,3.119,2.8,2.8,0,0,1-1.019,1.019h0a2.67,2.67,0,0,1-1.335.387Zm0-5.656A2.446,2.446,0,0,0,27.1,62.7a2.364,2.364,0,0,0-.907.938,3.241,3.241,0,0,0,0,2.874,2.364,2.364,0,0,0,.907.938,2.466,2.466,0,0,0,2.436,0h0a2.415,2.415,0,0,0,.9-.938,3.241,3.241,0,0,0,0-2.874,2.375,2.375,0,0,0-2.11-1.264Z" transform="translate(0.378 1.091)" fill="#606469"/><path d="M34.5,71.586a3.057,3.057,0,0,1-1.141-1.417l1.121-.479A2.171,2.171,0,0,0,35.3,70.71a2.344,2.344,0,0,0,1.366.4,2.4,2.4,0,0,0,1.783-.642,2.517,2.517,0,0,0,.632-1.834v-.825h-.061A2.731,2.731,0,0,1,38,68.733a3.19,3.19,0,0,1-1.508.346,3.231,3.231,0,0,1-1.763-.5,3.414,3.414,0,0,1-1.254-1.468,4.688,4.688,0,0,1,0-4.077,3.373,3.373,0,0,1,1.254-1.406,3.241,3.241,0,0,1,1.763-.51A3.058,3.058,0,0,1,38,61.487a2.6,2.6,0,0,1,1.019.938h.092V61.405H40.3v7.134a3.577,3.577,0,0,1-1.019,2.731,4.077,4.077,0,0,1-4.78.326Zm3.384-3.995a2.344,2.344,0,0,0,.876-1.019,3.292,3.292,0,0,0,.357-1.5,3.384,3.384,0,0,0-.326-1.529,2.385,2.385,0,0,0-.876-1.019A2.252,2.252,0,0,0,36.7,62.2a2.3,2.3,0,0,0-1.223.336,2.364,2.364,0,0,0-.887,1.019,3.322,3.322,0,0,0-.357,1.519,3.373,3.373,0,0,0,.326,1.518,2.341,2.341,0,0,0,3.322,1Z" transform="translate(0.54 1.093)" fill="#606469"/><path d="M36.672,72.333a3.74,3.74,0,0,1-2.242-.642,3.119,3.119,0,0,1-1.192-1.519V70.06l1.345-.581V69.6a2.11,2.11,0,0,0,.775,1.019,2.538,2.538,0,0,0,2.986-.234,2.375,2.375,0,0,0,.6-1.743v-.51a3.21,3.21,0,0,1-.9.734,3.3,3.3,0,0,1-1.569.367,3.343,3.343,0,0,1-1.824-.52,3.771,3.771,0,0,1-1.315-1.447,4.861,4.861,0,0,1,0-4.209A3.72,3.72,0,0,1,34.654,61.6,3.343,3.343,0,0,1,36.5,61a3.261,3.261,0,0,1,1.559.367,2.986,2.986,0,0,1,.907.744v-.876h1.427V68.5a3.475,3.475,0,0,1-3.72,3.8Zm-3.149-2.161a2.894,2.894,0,0,0,1.019,1.294,3.434,3.434,0,0,0,5.6-2.935V61.52h-.917v1.019h-.265v-.061a2.578,2.578,0,0,0-1.019-.887,2.976,2.976,0,0,0-1.447-.346,3.139,3.139,0,0,0-1.692.479,3.373,3.373,0,0,0-1.213,1.366,4.515,4.515,0,0,0,0,3.964A3.4,3.4,0,0,0,34.8,68.409a3.139,3.139,0,0,0,1.692.479,2.955,2.955,0,0,0,1.447-.347,2.639,2.639,0,0,0,1.019-.876V67.6h.255v.958a2.619,2.619,0,0,1-.673,1.926,2.548,2.548,0,0,1-1.865.7,2.446,2.446,0,0,1-1.437-.428,2.293,2.293,0,0,1-.815-1.019Zm3.149-2.13a2.476,2.476,0,0,1-1.294-.357,2.436,2.436,0,0,1-.927-1.019,3.506,3.506,0,0,1-.347-1.59,3.424,3.424,0,0,1,.347-1.569,2.6,2.6,0,0,1,.927-1.019,2.476,2.476,0,0,1,1.294-.357,2.415,2.415,0,0,1,2.2,1.376,3.75,3.75,0,0,1,0,3.149,2.65,2.65,0,0,1-.917,1.019,2.436,2.436,0,0,1-1.284.387Zm0-5.656a2.171,2.171,0,0,0-1.162.326,2.313,2.313,0,0,0-.836.927,3.159,3.159,0,0,0-.316,1.437,3.231,3.231,0,0,0,.316,1.457,2.262,2.262,0,0,0,3.19.917,2.293,2.293,0,0,0,.825-.927,3.159,3.159,0,0,0,.275-1.447,3.251,3.251,0,0,0-.316-1.468,2.262,2.262,0,0,0-.826-.917,2.15,2.15,0,0,0-1.152-.285Z" transform="translate(0.537 1.09)" fill="#606469"/><path d="M41.92,58.44h1.233V68.876H41.92Z" transform="translate(0.708 1.041)" fill="#606469"/><path d="M43.288,69h-1.5V58.31h1.5ZM42,68.746h1.019V58.555H42Z" transform="translate(0.706 1.039)" fill="#606469"/><path d="M46.344,68.539a3.455,3.455,0,0,1-1.335-1.427,4.209,4.209,0,0,1-.469-2.038,4.423,4.423,0,0,1,.469-1.936,3.7,3.7,0,0,1,1.264-1.447,3.363,3.363,0,0,1,1.9-.54,3.6,3.6,0,0,1,1.9.489,3.241,3.241,0,0,1,1.213,1.4A4.331,4.331,0,0,1,51.7,65a2.038,2.038,0,0,1,0,.377H45.783a3.057,3.057,0,0,0,.408,1.427,2.385,2.385,0,0,0,.927.876,2.517,2.517,0,0,0,1.172.285,2.4,2.4,0,0,0,2.2-1.335l1.019.51a3.662,3.662,0,0,1-5.167,1.4ZM50.42,64.32a2.324,2.324,0,0,0-.265-.938,2.038,2.038,0,0,0-.734-.785,2.293,2.293,0,0,0-1.254-.316,2.1,2.1,0,0,0-1.488.561,2.752,2.752,0,0,0-.795,1.478Z" transform="translate(0.757 1.093)" fill="#606469"/><path d="M48.252,69.153a3.71,3.71,0,0,1-1.977-.53h0a3.628,3.628,0,0,1-1.366-1.457,4.352,4.352,0,0,1-.489-2.038,4.566,4.566,0,0,1,.459-2.038,3.7,3.7,0,0,1,1.3-1.488A3.455,3.455,0,0,1,48.15,61a3.71,3.71,0,0,1,1.957.51,3.333,3.333,0,0,1,1.284,1.4,4.494,4.494,0,0,1,.438,2.038,1.621,1.621,0,0,1,0,.408v.092h-5.9a2.67,2.67,0,0,0,.377,1.233,2.222,2.222,0,0,0,.876.836,2.415,2.415,0,0,0,1.111.275,2.273,2.273,0,0,0,2.089-1.274l.061-.1,1.274.611-.061.122a4.005,4.005,0,0,1-1.345,1.5,3.822,3.822,0,0,1-2.059.51Zm-1.845-.744a3.516,3.516,0,0,0,1.845.489,3.434,3.434,0,0,0,3.119-1.783l-.825-.4a2.517,2.517,0,0,1-2.252,1.3,2.66,2.66,0,0,1-1.233-.306,2.527,2.527,0,0,1-.968-.917,3.057,3.057,0,0,1-.428-1.5v-.132h5.911a1.8,1.8,0,0,0,0-.245,4.3,4.3,0,0,0-.448-1.885,3.108,3.108,0,0,0-1.192-1.294,3.4,3.4,0,0,0-1.824-.469,3.22,3.22,0,0,0-1.824.52,3.547,3.547,0,0,0-1.213,1.386,4.382,4.382,0,0,0-.4,1.9,4.178,4.178,0,0,0,.459,2.038,3.475,3.475,0,0,0,1.274,1.355Zm4.127-3.995H45.7v-.153a2.915,2.915,0,0,1,.836-1.549,2.252,2.252,0,0,1,1.569-.591,2.374,2.374,0,0,1,1.325.347,2.038,2.038,0,0,1,.785.836,2.528,2.528,0,0,1,.275,1.019Zm-4.5-.224H50.26a2.334,2.334,0,0,0-.234-.744,1.8,1.8,0,0,0-.683-.734,2.161,2.161,0,0,0-1.192-.306,2.038,2.038,0,0,0-1.4.53A2.527,2.527,0,0,0,46.03,64.19Z" transform="translate(0.755 1.09)" fill="#606469"/><path d="M56,58.44h3.516a3.516,3.516,0,0,1,1.62.387,3.149,3.149,0,0,1,1.182,1.1A2.989,2.989,0,0,1,61.1,64.218a3.4,3.4,0,0,1-1.62.4H57.192v4.26H56Zm3.547,4.994a1.947,1.947,0,0,0,1.019-.275,1.906,1.906,0,0,0,.683-.713,1.783,1.783,0,0,0,.255-.917,1.733,1.733,0,0,0-.255-.917,1.906,1.906,0,0,0-.683-.713,1.947,1.947,0,0,0-1.019-.275H57.192v3.812Z" transform="translate(0.973 1.041)" fill="#606469"/><path d="M57.328,69H55.85V58.31h3.638a3.587,3.587,0,0,1,1.671.408A3.165,3.165,0,0,1,62.4,63.192a3.118,3.118,0,0,1-1.243,1.141,3.475,3.475,0,0,1-1.671.418H57.328ZM56.1,68.746h.968V64.5h2.415a3.272,3.272,0,0,0,1.61-.387A2.976,2.976,0,0,0,62.24,63.09a3.006,3.006,0,0,0,0-3.057A3.057,3.057,0,0,0,61.1,59.013a3.384,3.384,0,0,0-1.559-.377H56.1Zm3.414-5.177H57.073V59.492h2.446a2.048,2.048,0,0,1,1.824,1.06,1.855,1.855,0,0,1,.265,1.019,1.885,1.885,0,0,1-.265,1.019,2.11,2.11,0,0,1-.734.764,2.038,2.038,0,0,1-1.09.214Zm-2.191-.255h2.191a1.783,1.783,0,0,0,.958-.265,1.936,1.936,0,0,0,.652-.662,1.743,1.743,0,0,0,0-1.712A1.957,1.957,0,0,0,60.477,60a1.865,1.865,0,0,0-.958-.255H57.328Z" transform="translate(0.97 1.039)" fill="#606469"/><path d="M65.076,68.732a2.4,2.4,0,0,1-1.019-.887,2.324,2.324,0,0,1-.347-1.274,2.15,2.15,0,0,1,.887-1.834,3.6,3.6,0,0,1,2.242-.673,4.78,4.78,0,0,1,1.243.153,2.884,2.884,0,0,1,.887.336v-.5a1.682,1.682,0,0,0-.581-1.335,2.232,2.232,0,0,0-1.478-.5,2.466,2.466,0,0,0-1.152.275,2.038,2.038,0,0,0-.825.744l-.927-.652a2.945,2.945,0,0,1,1.2-1.019,3.761,3.761,0,0,1,1.7-.387,3.4,3.4,0,0,1,2.385.795,2.823,2.823,0,0,1,.866,2.171v4.708H69v-1.1h-.061a2.6,2.6,0,0,1-.958.917,2.762,2.762,0,0,1-1.447.377A3.22,3.22,0,0,1,65.076,68.732Zm2.741-1.09a2.4,2.4,0,0,0,.856-.866A2.232,2.232,0,0,0,69,65.6a2.965,2.965,0,0,0-.866-.387,4.077,4.077,0,0,0-1.07-.143,2.364,2.364,0,0,0-1.539.428,1.325,1.325,0,0,0-.5,1.09,1.2,1.2,0,0,0,.469,1.019,1.783,1.783,0,0,0,1.182.377,2.212,2.212,0,0,0,1.141-.347Z" transform="translate(1.118 1.094)" fill="#606469"/><path d="M66.534,69.153a3.282,3.282,0,0,1-1.508-.306h0a2.517,2.517,0,0,1-1.019-.927,2.487,2.487,0,0,1-.367-1.345,2.313,2.313,0,0,1,.938-1.947,3.852,3.852,0,0,1,2.324-.683,5.014,5.014,0,0,1,1.274.153,3.5,3.5,0,0,1,.724.245v-.285a1.518,1.518,0,0,0-.54-1.233,2.038,2.038,0,0,0-1.386-.469,2.293,2.293,0,0,0-1.09.255,1.936,1.936,0,0,0-.785.7l-.071.112-1.141-.846.071-.1a3.058,3.058,0,0,1,1.254-1.1A3.954,3.954,0,0,1,66.932,61a3.516,3.516,0,0,1,2.466.825,2.935,2.935,0,0,1,.907,2.262v4.861H68.868v-.815a2.976,2.976,0,0,1-.825.7A2.9,2.9,0,0,1,66.534,69.153Zm.336-4.984a3.536,3.536,0,0,0-2.171.642,2.038,2.038,0,0,0-.836,1.733,2.232,2.232,0,0,0,1.274,2.038h0a3.057,3.057,0,0,0,1.4.306,2.711,2.711,0,0,0,1.376-.357,2.538,2.538,0,0,0,.917-.876v-.061H69.1v1.019h.927V64.119A2.66,2.66,0,0,0,69.2,62.08a3.261,3.261,0,0,0-2.293-.764,3.628,3.628,0,0,0-1.641.367,2.976,2.976,0,0,0-1.09.907l.734.54a2.283,2.283,0,0,1,.805-.683,2.609,2.609,0,0,1,1.2-.275,2.293,2.293,0,0,1,1.559.53,1.794,1.794,0,0,1,.622,1.355v.683l-.194-.122a3.057,3.057,0,0,0-.846-.316,5.014,5.014,0,0,0-1.192-.1Zm-.214,3.964a1.977,1.977,0,0,1-1.264-.408,1.315,1.315,0,0,1-.51-1.09,1.457,1.457,0,0,1,.561-1.192,2.538,2.538,0,0,1,1.62-.489,4.423,4.423,0,0,1,1.111.143,3.312,3.312,0,0,1,.9.4h0v.071a2.4,2.4,0,0,1-.336,1.243,2.579,2.579,0,0,1-.907.907h0a2.354,2.354,0,0,1-1.172.418Zm.408-2.884a2.3,2.3,0,0,0-1.457.387,1.233,1.233,0,0,0-.469,1.019,1.019,1.019,0,0,0,.418.887,1.682,1.682,0,0,0,1.1.357,2.14,2.14,0,0,0,1.1-.306,2.4,2.4,0,0,0,.815-.815,2.2,2.2,0,0,0,.3-1.019,3.587,3.587,0,0,0-.764-.326,3.873,3.873,0,0,0-1.04-.224Z" transform="translate(1.117 1.09)" fill="#606469"/><path d="M71.54,61.542h1.182v1.182h.061A1.967,1.967,0,0,1,73.67,61.7a2.925,2.925,0,0,1,1.906-.326v1.264a3.72,3.72,0,0,0-.662,0,2.038,2.038,0,0,0-1.539.622,2.273,2.273,0,0,0-.591,1.631v4.127H71.54Zm7.542,7.4a2.038,2.038,0,0,1-.642-.4A1.845,1.845,0,0,1,78,67.891a2.426,2.426,0,0,1-.143-.907V62.54h-1.3V61.419h1.3v-2.1h1.284v2.1h1.8V62.54h-1.8v4.148a1.478,1.478,0,0,0,.234.917,1.019,1.019,0,0,0,.805.336A1.559,1.559,0,0,0,81,67.687V68.9a1.906,1.906,0,0,1-.448.143,3.058,3.058,0,0,1-.571,0,2.3,2.3,0,0,1-.9-.1Z" transform="translate(1.265 1.058)" fill="#606469"/><path d="M79.93,69.187a2.538,2.538,0,0,1-.887-.153,2.222,2.222,0,0,1-.693-.428,2.038,2.038,0,0,1-.469-.7,2.6,2.6,0,0,1-.153-.948v-4.28H76.434V61.3h1.294V59.2h1.5v2.1h1.8v1.376h-1.8v4.015a1.345,1.345,0,0,0,.2.846.866.866,0,0,0,.7.275,1.376,1.376,0,0,0,.744-.224l.194-.122v1.518H81a2.18,2.18,0,0,1-.479.153,3.056,3.056,0,0,1-.591.051Zm-3.241-6.8h1.294v4.566a2.609,2.609,0,0,0,.132.856,1.784,1.784,0,0,0,.408.611,1.814,1.814,0,0,0,.611.367,2.252,2.252,0,0,0,.795.143,2.752,2.752,0,0,0,.55,0,2.111,2.111,0,0,0,.336-.1v-.917a1.5,1.5,0,0,1-.683.163,1.111,1.111,0,0,1-.907-.377,1.6,1.6,0,0,1-.255-1.019V62.42h1.8v-.866h-1.8v-2.1H77.953v2.1H76.689Zm-3.781,6.685H71.42V61.412h1.437v.9a2.11,2.11,0,0,1,.754-.713,2.813,2.813,0,0,1,1.457-.387,2.926,2.926,0,0,1,.561,0h.1v1.529h-.153a2.731,2.731,0,0,0-.642-.061,1.865,1.865,0,0,0-1.447.591,2.161,2.161,0,0,0-.561,1.539Zm-1.233-.255h1.019V64.846a2.4,2.4,0,0,1,.632-1.712,2.12,2.12,0,0,1,1.631-.673,4.076,4.076,0,0,1,.54,0V61.442a2.456,2.456,0,0,0-.408,0,2.64,2.64,0,0,0-1.315.347,1.936,1.936,0,0,0-.826.958v.082h-.265V61.666h-.927Z" transform="translate(1.263 1.056)" fill="#606469"/><path d="M82.11,61.385h1.182v1.1h.061a2.548,2.548,0,0,1,1.019-.948,2.864,2.864,0,0,1,1.437-.387,2.609,2.609,0,0,1,2.038.785,3,3,0,0,1,.713,2.12v4.77H87.267V64.248a2.038,2.038,0,0,0-.489-1.508,1.936,1.936,0,0,0-1.355-.459,1.865,1.865,0,0,0-1.019.326,2.263,2.263,0,0,0-.744.887,2.629,2.629,0,0,0-.255,1.141v4.189H82.11Z" transform="translate(1.461 1.093)" fill="#606469"/><path d="M88.635,68.949H87.147v-4.7a1.875,1.875,0,0,0-.459-1.417,1.794,1.794,0,0,0-1.264-.428,1.62,1.62,0,0,0-1.019.316,2.11,2.11,0,0,0-.693.825,2.415,2.415,0,0,0-.255,1.09v4.311H82V61.265h1.427v.887a2.792,2.792,0,0,1,.846-.713,2.9,2.9,0,0,1,1.5-.408,2.741,2.741,0,0,1,2.14.825,3.169,3.169,0,0,1,.724,2.2ZM87.4,68.694h1.019V64.057a2.945,2.945,0,0,0-.673-2.038,2.5,2.5,0,0,0-1.947-.734,2.69,2.69,0,0,0-1.366.367,2.313,2.313,0,0,0-.927.9v.061h-.265v-1.09h-.917v7.134h1.019V64.577a2.691,2.691,0,0,1,.275-1.192,2.415,2.415,0,0,1,.775-.938,1.977,1.977,0,0,1,1.152-.357,2.038,2.038,0,0,1,1.437.5,2.12,2.12,0,0,1,.54,1.6Z" transform="translate(1.458 1.091)" fill="#606469"/><path d="M91.534,68.539a3.506,3.506,0,0,1-1.315-1.427,4.209,4.209,0,0,1-.469-2.038,4.423,4.423,0,0,1,.438-1.977,3.618,3.618,0,0,1,1.264-1.447,3.363,3.363,0,0,1,1.9-.54,3.6,3.6,0,0,1,1.9.489,3.312,3.312,0,0,1,1.233,1.437A4.331,4.331,0,0,1,96.9,65a1.407,1.407,0,0,1,0,.377h-5.88a2.935,2.935,0,0,0,.408,1.427,2.385,2.385,0,0,0,.927.876,2.517,2.517,0,0,0,1.172.285,2.4,2.4,0,0,0,2.2-1.335l1.019.51a3.75,3.75,0,0,1-1.3,1.427,3.659,3.659,0,0,1-2.038.52,3.6,3.6,0,0,1-1.875-.55ZM95.61,64.32a2.324,2.324,0,0,0-.265-.938,2.038,2.038,0,0,0-.734-.785,2.3,2.3,0,0,0-1.264-.316,2.038,2.038,0,0,0-1.478.561,2.752,2.752,0,0,0-.846,1.478Z" transform="translate(1.607 1.092)" fill="#606469"/><path d="M93.452,69.153a3.71,3.71,0,0,1-1.977-.53h0a3.628,3.628,0,0,1-1.366-1.457,4.382,4.382,0,0,1-.489-2.038,4.566,4.566,0,0,1,.459-2.038,3.76,3.76,0,0,1,1.3-1.488A3.455,3.455,0,0,1,93.35,61a3.71,3.71,0,0,1,1.957.51,3.333,3.333,0,0,1,1.284,1.4,4.494,4.494,0,0,1,.438,2.038,1.62,1.62,0,0,1,0,.408v.092h-5.9a2.67,2.67,0,0,0,.377,1.233,2.222,2.222,0,0,0,.876.836,2.385,2.385,0,0,0,1.111.275,2.273,2.273,0,0,0,2.038-1.274l.061-.1,1.274.611-.061.122a3.924,3.924,0,0,1-1.294,1.5,3.822,3.822,0,0,1-2.059.51Zm-1.845-.744a3.557,3.557,0,0,0,4.963-1.294l-.825-.4a2.538,2.538,0,0,1-2.252,1.3,2.66,2.66,0,0,1-1.233-.306,2.527,2.527,0,0,1-.968-.917,3.057,3.057,0,0,1-.428-1.5v-.132h5.9a.918.918,0,0,0,0-.245,4.3,4.3,0,0,0-.408-1.885,3.159,3.159,0,0,0-1.182-1.294,3.4,3.4,0,0,0-1.824-.469,3.22,3.22,0,0,0-1.824.52A3.5,3.5,0,0,0,90.3,63.181a4.372,4.372,0,0,0-.428,1.9,4.179,4.179,0,0,0,.459,2.038,3.475,3.475,0,0,0,1.274,1.355Zm4.077-3.995H90.9v-.153a2.843,2.843,0,0,1,.836-1.549,2.252,2.252,0,0,1,1.559-.591,2.385,2.385,0,0,1,1.335.347,2.038,2.038,0,0,1,.775.836,2.741,2.741,0,0,1,.285,1.019Zm-4.5-.255h4.229a2.334,2.334,0,0,0-.234-.744,1.763,1.763,0,0,0-.693-.734,2.14,2.14,0,0,0-1.192-.306,2.038,2.038,0,0,0-1.386.53,2.527,2.527,0,0,0-.683,1.284Z" transform="translate(1.604 1.09)" fill="#606469"/><path d="M98.17,61.384h1.182v1.2h0a2.038,2.038,0,0,1,.846-1.019,2.364,2.364,0,0,1,1.315-.418,2.283,2.283,0,0,1,.876.163v1.325a2.374,2.374,0,0,0-1.019-.234,1.712,1.712,0,0,0-1.019.306,2.211,2.211,0,0,0-.724.836,2.3,2.3,0,0,0-.275,1.111v4.168H98.17Z" transform="translate(1.768 1.093)" fill="#606469"/><path d="M99.539,68.949H98V61.265h1.437v.887a2.4,2.4,0,0,1,.7-.693A2.517,2.517,0,0,1,101.567,61a2.354,2.354,0,0,1,.927.173h.071v1.62l-.183-.092a2.11,2.11,0,0,0-1.019-.224,1.549,1.549,0,0,0-.917.285,2.038,2.038,0,0,0-.683.775,2.232,2.232,0,0,0-.255,1.019ZM98.3,68.694h1.019V64.618a2.436,2.436,0,0,1,.285-1.172,2.2,2.2,0,0,1,.764-.876,1.855,1.855,0,0,1,1.019-.326,2.446,2.446,0,0,1,.917.163V61.387a2.038,2.038,0,0,0-.744-.122,2.283,2.283,0,0,0-1.243.387,1.936,1.936,0,0,0-.795.958v.082h-.3V61.52H98.3Z" transform="translate(1.765 1.09)" fill="#606469"/></g></svg>