<svg xmlns="http://www.w3.org/2000/svg" width="190" height="39.359" viewBox="0 0 190 39.359"><path d="M21649,12914.774v-38.188a.564.564,0,0,1,.674-.564l24.369,4.045a.515.515,0,0,1,.449.562v29.88c0,.225-.227.561-.449.561l-24.369,4.27a.394.394,0,0,1-.133.021A.593.593,0,0,1,21649,12914.774Zm4.156-33.135v28.642a.63.63,0,0,0,.674.564l17.182-2.475a.513.513,0,0,0,.449-.561h.111v-24.038a.6.6,0,0,0-.561-.562l-17.182-2.133a.413.413,0,0,0-.135-.021A.589.589,0,0,0,21653.16,12881.64Zm139.578,32.124a.541.541,0,0,1-.223-.785l.674-1.686a.579.579,0,0,1,.783-.338,11.116,11.116,0,0,0,4.719,1.125c3.031,0,5.613-1.909,5.613-5.395v-1.234a7.145,7.145,0,0,1-5.725,2.811c-5.166,0-8.537-3.933-8.537-9.324,0-5.5,3.594-9.437,8.648-9.437a7.2,7.2,0,0,1,5.838,2.811v-1.686a.562.562,0,0,1,.674-.562l2.359.447a.751.751,0,0,1,.449.562v14.378c0,6.739-4.043,9.773-9.32,9.773A14.1,14.1,0,0,1,21792.738,12913.764Zm1.012-14.826c0,3.705,2.246,6.066,5.391,6.066,3.256,0,5.277-2.584,5.277-6.066,0-3.708-2.246-6.065-5.391-6.065S21793.75,12895.343,21793.75,12898.938Zm-41.547,16.287a.529.529,0,0,1-.562-.561v-23.928c.109-.447.449-.672.785-.561l2.359.45a.743.743,0,0,1,.449.562v1.124a6.844,6.844,0,0,1,5.727-2.811c5.164,0,8.76,3.933,8.76,9.323,0,5.5-3.369,9.438-8.535,9.438a7.2,7.2,0,0,1-5.838-2.811v9.213a.531.531,0,0,1-.562.561Zm3.031-16.287c.113,3.819,2.469,6.066,5.391,6.066,3.145,0,5.277-2.471,5.277-6.066,0-3.708-2.246-6.065-5.391-6.065C21757.256,12892.872,21755.234,12895.566,21755.234,12898.938Zm-111.73,12.579v-32.011a.629.629,0,0,1,.672-.563l2.023.337a.513.513,0,0,1,.447.561v31.453a.711.711,0,0,1-.561.674l-1.91.224A.646.646,0,0,1,21643.5,12911.517Zm-5.5-2.918v-26.175a.629.629,0,0,1,.676-.561l1.906.223a.534.534,0,0,1,.563.564v25.721a.534.534,0,0,1-.562.564l-1.906.225a.471.471,0,0,1-.135.021A.591.591,0,0,1,21638,12908.6Zm133.965-6.179c0-3.482,2.809-5.952,6.963-5.952a6.368,6.368,0,0,1,4.268,1.346v-1.683c0-2.023-1.459-3.259-3.82-3.259a10.588,10.588,0,0,0-4.49,1.122.747.747,0,0,1-.787-.224l-.9-1.572c-.109-.224-.109-.675.227-.788a12.273,12.273,0,0,1,6.285-1.8c5.279,0,7.189,2.921,7.189,6.739v11.007a.532.532,0,0,1-.561.563h-2.248c-.223,0-.561-.227-.561-.45l-.223-.9a5.865,5.865,0,0,1-4.605,1.795C21774.885,12908.371,21771.965,12906.016,21771.965,12902.42Zm3.818-.224c0,1.8,1.459,3.144,3.818,3.144,2.246,0,3.82-1.234,3.82-3.144s-1.574-3.034-3.82-3.034S21775.783,12900.51,21775.783,12902.2Zm-42.561.224c0-3.482,2.809-5.952,6.963-5.952a6.36,6.36,0,0,1,4.268,1.346v-1.683c0-2.023-1.457-3.259-3.818-3.259a10.588,10.588,0,0,0-4.49,1.122.7.7,0,0,1-.787-.224l-.9-1.572c-.111-.224-.111-.675.227-.788a12.269,12.269,0,0,1,6.287-1.8c5.277,0,7.188,2.921,7.188,6.739v11.007a.532.532,0,0,1-.562.563h-2.246c-.223,0-.561-.227-.561-.45l-.227-.9a5.86,5.86,0,0,1-4.6,1.795C21736.145,12908.371,21733.223,12906.016,21733.223,12902.42Zm3.707-.224c0,1.8,1.572,3.144,3.82,3.144s3.814-1.234,3.814-3.144-1.568-3.034-3.814-3.034S21736.93,12900.51,21736.93,12902.2Zm-29.646,3.03a.694.694,0,0,1,.111-.784l1.688-1.124c.223-.225.561-.114.785.113a4.778,4.778,0,0,0,3.932,1.908c1.572,0,2.693-.787,2.693-2.246,0-3.481-8.76-2.246-8.76-8.426,0-3.145,2.7-5.054,6.178-5.054a6.4,6.4,0,0,1,5.5,2.808.5.5,0,0,1-.227.788l-1.684,1.122a.687.687,0,0,1-.787-.114,3.588,3.588,0,0,0-3.145-1.572c-1.346,0-2.357.675-2.357,1.909,0,3.485,8.76,2.023,8.76,8.316,0,3.367-2.807,5.5-6.514,5.5A6.956,6.956,0,0,1,21707.283,12905.227Zm103.313-6.289c0-5.5,3.818-9.437,8.76-9.437,5.387,0,8.645,3.709,8.645,9.323v.338a.529.529,0,0,1-.561.561h-12.916a5.256,5.256,0,0,0,5.5,5.281,5.939,5.939,0,0,0,4.607-2.023c.223-.224.561-.338.783-.109l1.572,1.121a.556.556,0,0,1,.113.787,8.617,8.617,0,0,1-7.187,3.482A8.9,8.9,0,0,1,21810.6,12898.938Zm4.041-1.686h9.545a4.574,4.574,0,0,0-4.717-4.606A4.74,4.74,0,0,0,21814.637,12897.252Zm-91.07,3.482v-7.639h-1.459a.528.528,0,0,1-.561-.561v-1.909a.529.529,0,0,1,.561-.562h1.459v-3.034c0-.45.338-.674.789-.674l2.582.561c.225,0,.449.337.449.564v2.47h3.031a.528.528,0,0,1,.559.561v1.91a.528.528,0,0,1-.559.561h-3.031v8.313c0,2.811,1.01,3.371,3.031,3.371h.336c.336,0,.336.447.336.447v2.247a.53.53,0,0,1-.559.563c-.338,0-.789.111-1.35.111C21724.8,12908.035,21723.566,12905.113,21723.566,12900.734Zm-21.895,7.189a.532.532,0,0,1-.562-.563v-10.446c0-2.469-1.57-3.932-3.594-3.932a3.9,3.9,0,0,0-3.93,4.156v10.222a.532.532,0,0,1-.562.563h-2.582a.531.531,0,0,1-.561-.563v-16.849a.529.529,0,0,1,.561-.561h2.471a.529.529,0,0,1,.561.561v1.8a5.809,5.809,0,0,1,5.055-2.811c4.6,0,6.289,3.709,6.289,7.638v10.222a.534.534,0,0,1-.564.563Zm-19.316,0a.532.532,0,0,1-.561-.563v-23.925c-.113-.338.225-.674.674-.561l2.582.561c.227,0,.449.337.449.564v23.36a.531.531,0,0,1-.561.563Z" transform="translate(-21638 -12876)" fill="#fff"/></svg>