<svg xmlns="http://www.w3.org/2000/svg" width="189.998" height="47.669" viewBox="0 0 189.998 47.669"><path d="M20715,12826.975a30.571,30.571,0,0,1-5.871-.506,12.507,12.507,0,0,1-10.082-10.308,30.322,30.322,0,0,1-.395-3.989c-.137-3-.07-6-.07-9,0-2.318-.043-4.637.012-6.954a31.384,31.384,0,0,1,.619-6.742,12.345,12.345,0,0,1,5.828-8.037,13.806,13.806,0,0,1,5.35-1.741,45.046,45.046,0,0,1,5.535-.306c4.393-.028,8.785-.043,13.182.008a31,31,0,0,1,6.986.615,12.573,12.573,0,0,1,9.719,10.7,43.227,43.227,0,0,1,.367,5.727q.059,6.688,0,13.383a33.659,33.659,0,0,1-.516,6.6,12.465,12.465,0,0,1-10.355,10.115,24.136,24.136,0,0,1-3.594.373c-2.762.095-5.525.126-8.289.126C20720.617,12827.034,20717.809,12827,20715,12826.975Zm-1.594-43.125a17.418,17.418,0,0,0-4.168.558,7.812,7.812,0,0,0-5.48,5.146,15.6,15.6,0,0,0-.715,4.585c-.074,1.957-.113,3.91-.1,5.867.053,4.743-.152,9.484.252,14.219a9.709,9.709,0,0,0,1.186,4.016,8.015,8.015,0,0,0,5.5,3.9,28.808,28.808,0,0,0,5.914.463c3.818.055,7.639.02,11.453.02,2.053,0,4.1-.051,6.139-.243a9.963,9.963,0,0,0,4.023-1.173,7.993,7.993,0,0,0,3.918-5.483,27.946,27.946,0,0,0,.469-5.871c.055-3.871.023-7.746.02-11.618a60.545,60.545,0,0,0-.244-6.1,9.8,9.8,0,0,0-1.314-4.225,8.133,8.133,0,0,0-5.738-3.75,33.841,33.841,0,0,0-5.521-.384c-2.209-.055-4.42-.016-6.633-.016-1.271,0-2.545-.01-3.818-.01C20716.834,12783.754,20715.119,12783.771,20713.406,12783.85Zm114.393,40.336a3.922,3.922,0,0,1-1.049-4.82,10.515,10.515,0,0,1,2.154-2.941c1.156-1.208,2.416-2.3,3.646-3.425.773-.705.766-.709.645-1.779-.314.277-.641.567-.961.854a4.227,4.227,0,0,1-6.676-.779c-.318-.459-.42-.271-.609.055a3.89,3.89,0,0,1-1.686,1.659,3.411,3.411,0,0,1-4.584-1.848c-.09-.224-.168-.451-.3-.82-1.2,1.849-2.7,3.13-4.918,2.978-2.316-.16-3.359-1.84-4.035-3.82-.27.078-.273.313-.355.479a9.682,9.682,0,0,1-1.49,2.2c-1.873,2.036-4.279,1.142-5.373-.679a8.3,8.3,0,0,1-1.025-3.008c-.041-.239-.086-.479-.145-.827-.361.646-.658,1.219-.994,1.769a7.534,7.534,0,0,1-8.961,3.644c-.215-.055-.426-.126-.637-.2-1.672-.58-1.9-1.482-.6-3.016a.978.978,0,0,1,1.48-.153,12.038,12.038,0,0,0,1.234.792,1.615,1.615,0,0,0,2.484-1.459,3.631,3.631,0,0,0-.914-2.64,24.125,24.125,0,0,0-2.125-2.114c-.375-.368-.527-.051-.7.224-.863,1.452-1.717,2.906-2.6,4.35a12.677,12.677,0,0,1-2.973,3.648,3.989,3.989,0,0,1-1.342.729,2.011,2.011,0,0,1-2.545-1.133,8.839,8.839,0,0,1-.662-3.511c-.107-2.039.109-4.078.168-6.122.023-.831,0-1.667,0-2.573a3.667,3.667,0,0,0-1.027,1.149,25.224,25.224,0,0,0-3.5,8.378,18.69,18.69,0,0,0-.57,3,.882.882,0,0,1-.883.9c-1.836.16-2.352-.412-2.57-1.777a6.848,6.848,0,0,1-.074-1.059q.006-6.2.02-12.4c0-1.083.324-1.33,1.406-1.106a5.894,5.894,0,0,1,.582.146c1.2.368,1.275.474,1.275,1.726,0,1.977,0,3.953.09,5.962.291-.773.568-1.546.867-2.318a12.773,12.773,0,0,1,2.354-4.225c1.744-1.89,3.152-1.683,5.117-.141a1.7,1.7,0,0,1,.563,1.506c-.1,2.773-.254,5.546-.193,8.323a7.132,7.132,0,0,0,.15,1.321c.055.255.082.561.387.644s.514-.138.688-.333a8.809,8.809,0,0,0,.875-1.091c1.129-1.758,2.148-3.581,3.133-5.425a.758.758,0,0,0-.082-.905,3.176,3.176,0,0,1,.066-3.8,3.419,3.419,0,0,1,3.514-1.7,1.4,1.4,0,0,1,1.256,1.824,5.633,5.633,0,0,1-1.227,2.565c-.477.58-.318.851.227,1.224.895.615,1.75,1.294,2.6,1.977a4.71,4.71,0,0,1,2.051,4.118,1.285,1.285,0,0,0,.053.3,4.066,4.066,0,0,0,1.074-1.22,7.134,7.134,0,0,0,1.352-4.24c-.051-2,0-4,.008-6,0-.9,0-.9-.873-.914a20.745,20.745,0,0,1-2.463-.105c-.176-.027-.381-.013-.488-.177-.422-.658-.1-1.286.119-1.91a.89.89,0,0,1,1.053-.6c.752.059,1.508.047,2.266.086.453.023.631-.146.635-.612.02-1.105.08-2.216.133-3.325.045-.966.424-1.279,1.373-1.114a9.921,9.921,0,0,1,1.8.494.978.978,0,0,1,.715,1.185,20.22,20.22,0,0,0-.111,2.663c-.027.854.061.922.945.961,1,.039,2,.094,3,.146.531.022.988.133.977.812-.012.871-.437,1.486-1.066,1.514-1.111.048-2.223.087-3.332.1-.434.008-.639.138-.662.607-.176,3.459-.295,6.923-.232,10.387a7.351,7.351,0,0,0,.363,2.161c.4,1.247,1.207,1.45,2.1.474a6.723,6.723,0,0,0,1.852-4.455,15.531,15.531,0,0,1,.811-4.773,7.8,7.8,0,0,1,1.568-2.69,3.879,3.879,0,0,1,5.975-.22c.074.07.16.138.248.212.449-.926.734-1.074,1.744-.906a5.625,5.625,0,0,1,.84.212c.873.278,1.057.529,1.045,1.443-.041,2.754-.205,5.5-.131,8.26a13.405,13.405,0,0,0,.273,2.511,3.448,3.448,0,0,0,.3.874,1,1,0,0,0,1.7.317,3.328,3.328,0,0,0,1.039-2.757c-.346-3.271-.066-6.44,1.77-9.295a4.131,4.131,0,0,1,3.881-2.142,4.063,4.063,0,0,1,2.939,1.64c.043-.476.148-.848.555-1a2.347,2.347,0,0,1,1.186-.047c.066.012.129.031.2.047,1.512.357,1.705.612,1.6,2.146-.191,2.978-.057,5.954-.1,8.927a1.266,1.266,0,0,0,.035.248c.211.058.25-.106.316-.2a25.211,25.211,0,0,0,3.172-6.727,1.069,1.069,0,0,0-.258-1.188,2.38,2.38,0,0,1-.3-2.742,2.217,2.217,0,0,1,2.1-1.49c1.186-.027,1.8.541,1.744,1.741-.029.655.166.812.785.667.82-.188,1.656-.329,2.488-.471a1.79,1.79,0,0,1,2.234,2.3,28.524,28.524,0,0,0-.949,6.573,8.131,8.131,0,0,0,.57,3.055c.23.519.523,1.021,1.18,1.048.689.027,1.051-.451,1.391-.977.641-.992.266-2.023.205-3.052-.172-3.051.17-5.977,1.982-8.585a4.009,4.009,0,0,1,6.547-.412.265.265,0,0,0,.107.055c.229-.914.525-1.118,1.514-.984a5.894,5.894,0,0,1,.973.224c.922.294,1.053.584,1.047,1.565,0,3.263-.344,6.521-.027,9.785a5.7,5.7,0,0,0,.291,1.432c.162.451.389.863.928.945a1.2,1.2,0,0,0,1.172-.628,6.5,6.5,0,0,0,1.3-3.647c.043-2.906.07-5.816.109-8.727.012-1.117.291-1.35,1.379-1.149,2.023.376,2.023.376,2.023,2.428,0,1.2,0,2.4.086,3.629.164-.483.332-.966.5-1.447a24.862,24.862,0,0,1,1.43-3.73,1.45,1.45,0,0,1,1.965-.883,2.479,2.479,0,0,1,2.277,2.789,55.406,55.406,0,0,0,.3,5.974,37.075,37.075,0,0,1,2.252-7.605c.484-1.188,1.066-1.459,2.309-1.063,2.129.679,2.488,1.142,2.336,3.361-.145,2.091-.094,4.173-.082,6.265a10,10,0,0,0,.395,2.89,2.816,2.816,0,0,0,.463.957.885.885,0,0,0,1.584-.047,5.182,5.182,0,0,0,.688-1.792,4.5,4.5,0,0,1,.379-1.2.563.563,0,0,1,.543-.321.521.521,0,0,1,.486.392,1.662,1.662,0,0,1,.109.647,7.7,7.7,0,0,1-1.016,3.554,3.032,3.032,0,0,1-4.711.757,5.993,5.993,0,0,1-1.934-4.186,41.844,41.844,0,0,1-.248-6.314c0-.2,0-.393,0-.616-.285.091-.285.318-.355.487a25.316,25.316,0,0,0-2,9.119.94.94,0,0,1-.922,1.008,2.277,2.277,0,0,1-2.73-1.852,32.858,32.858,0,0,1-.7-5.205c-.109-1.235-.137-2.471-.148-3.718-.367.012-.412.271-.5.446a18.443,18.443,0,0,0-1.955,7.01c-.072,1.13-.09,2.263-.146,3.393-.039.816-.252,1.043-1.064,1.177a3.621,3.621,0,0,1-.461.055c-1.789.086-2.355-.388-2.57-2.3-.771,1.53-1.791,2.526-3.535,2.229a3.779,3.779,0,0,1-3.049-3,5.786,5.786,0,0,1-4.061,2.984,4.078,4.078,0,0,1-4.246-2.188c-.213.047-.25.192-.32.3-1.943,3.091-5.055,2.091-6.461-.235a7.768,7.768,0,0,1-.98-3.7,22.013,22.013,0,0,1,.551-5.754c.168-.8.094-.73-.67-.812-1.428-.153-1.891.6-2.346,1.777a29.287,29.287,0,0,1-4.98,8.39,2.013,2.013,0,0,0-.516,1.447,31.885,31.885,0,0,1-.125,6.314c-.332,1.977-.8,3.875-2.484,5.217a5.062,5.062,0,0,1-3.152,1.1A4.935,4.935,0,0,1,20827.8,12824.186Zm1.83-4.679a4.3,4.3,0,0,0-.617,2.482,1.507,1.507,0,0,0,1.625,1.486,2.182,2.182,0,0,0,2.131-1.784,21.3,21.3,0,0,0,.635-6.668A18.4,18.4,0,0,0,20829.629,12819.507Zm.068-19.6a3.666,3.666,0,0,0-.947,1.35,12,12,0,0,0-.8,4.749c0,.334-.021.668,0,1a6.783,6.783,0,0,0,.863,3.308,1.423,1.423,0,0,0,2.232.392,3.757,3.757,0,0,0,1.254-1.839,14.646,14.646,0,0,0,.752-5.9,6.238,6.238,0,0,0-.529-2.522,1.764,1.764,0,0,0-1.559-1.067A1.919,1.919,0,0,0,20829.7,12799.907Zm26.309.334a4.113,4.113,0,0,0-.67,1.294,16.134,16.134,0,0,0-.475,6.322,5.344,5.344,0,0,0,.686,2.342,1.478,1.478,0,0,0,2.459.372,3.943,3.943,0,0,0,.99-1.4,10.754,10.754,0,0,0,.8-4.808c0-.534.021-1.067-.006-1.6a5.74,5.74,0,0,0-.518-2.188,1.908,1.908,0,0,0-1.691-1.2A2.015,2.015,0,0,0,20856.006,12800.241Zm-41.818-.3a3.529,3.529,0,0,0-.918,1.521,14.361,14.361,0,0,0-.451,6.9,4.5,4.5,0,0,0,.766,2.035,1.41,1.41,0,0,0,2.15.313,3.725,3.725,0,0,0,1.176-1.589,12.74,12.74,0,0,0,.84-5.192,6.929,6.929,0,0,0-.7-3.565,1.779,1.779,0,0,0-1.551-.988A1.92,1.92,0,0,0,20814.188,12799.938Zm-48.879,16.246a.619.619,0,0,1-.1-.741,22.786,22.786,0,0,0,.82-7.577c.051-5.37.031-10.743.035-16.117,0-.255.129-.639-.117-.737-.289-.121-.482.247-.652.455a10.687,10.687,0,0,0-2.387,8.9,5.2,5.2,0,0,0,.8,1.82c.18.3.414.635.141.98-.307.381-.7.172-1.043.043a5.226,5.226,0,0,1-3.25-5.621,12.156,12.156,0,0,1,5.727-8.519,3.387,3.387,0,0,1,3.664-.035,1.372,1.372,0,0,1,.793,1.337c0,3.773.207,7.547-.027,11.358,0,2.425.031,4.892-.012,7.354a9.868,9.868,0,0,1-1.107,4.75,5.041,5.041,0,0,1-2.533,2.361,1.23,1.23,0,0,1-.436.113A.465.465,0,0,1,20765.309,12816.185Zm-55.18-13.033a12.256,12.256,0,1,1,12.275,12.288h-.127A12.253,12.253,0,0,1,20710.129,12803.151Zm4.391.027a7.865,7.865,0,1,0,7.879-7.849h-.016A7.835,7.835,0,0,0,20714.52,12803.179Zm20.535-9.774a2.91,2.91,0,0,1,.035-5.82,2.91,2.91,0,1,1-.021,5.82Z" transform="translate(-20698.566 -12779.365)" fill="#fff"/></svg>