<svg xmlns="http://www.w3.org/2000/svg" width="190" height="44.302" viewBox="0 0 190 44.302"><path d="M20381.811,12638.434l-4.553-2.972a8.244,8.244,0,0,1,14.4,0l-4.553,2.972a4.03,4.03,0,0,1-2.646.976A4.124,4.124,0,0,1,20381.811,12638.434Zm2.6-15.368a16.3,16.3,0,0,0-13.98,7.891l-6.781-4.5a24.651,24.651,0,0,1,20.807-11.514,24.323,24.323,0,0,1,20.715,11.514l-6.781,4.5A16.364,16.364,0,0,0,20384.412,12623.065Zm97.643,5.4-8.723-21.481H20478l4.264,11.509,4.26-11.509h4.7l-8.729,21.481Zm38.107-11.5a10.74,10.74,0,1,1,10.742,10.74A10.742,10.742,0,0,1,20520.162,12616.965Zm4.059,0a6.681,6.681,0,1,0,6.684-6.68A6.684,6.684,0,0,0,20524.221,12616.965Zm-15.424,10.74v-9.335l-7.219-11.391h5.045l4.232,7.132,4.232-7.132h5.074l-7.248,11.391v9.335Zm-14.465,0v-20.726h4.143v20.726Zm-22.58,0-.84-2.232h-6.869l-.811,2.232h-4.7l8.729-21.481h.434l8.727,21.481Zm-6.2-6.117h3.826l-1.883-5.392Zm-20.877,6.117v-20.726h4.146v16.58h6.582v4.146Zm-8.221,0-5.508-8.118v8.118h-4.148v-20.726h4.148v8.263l5.217-8.263H20441l-6.727,10.229,7.3,10.5Zm-51.994-20.895a32.685,32.685,0,0,0-27.582,15.183l-3.947-2.6a2.6,2.6,0,0,1-1.285-2.11v-.013a2.533,2.533,0,0,1,1.33-2.1l29.439-19.506a3.909,3.909,0,0,1,2.07-.557,3.869,3.869,0,0,1,2.064.557l29.445,19.506a2.35,2.35,0,0,1,0,4.227l-3.947,2.6A32.646,32.646,0,0,0,20384.457,12606.811Z" transform="translate(-20351.643 -12595.107)" fill="#fff"/></svg>