<svg xmlns="http://www.w3.org/2000/svg" width="190" height="75.327" viewBox="0 0 190 75.327"><path d="M59.842,66.85c.055,1.014.056,1.163.056,1.163v6.716H57.344s.039-5.3.017-7.149c-.013-1.066-.356-2.357-1.467-2.72a3.2,3.2,0,0,0-3.47.728,3.387,3.387,0,0,0-1.111,2.533c.032,1.868.046,6.608.046,6.608H48.9v-12h2.455l-.019,1.883s.417-.584.507-.685A4.661,4.661,0,0,1,57.1,62.688c1.917.61,2.641,2.319,2.741,4.162M27.373,64.42c0-1.158,0-1.68,0-1.68H24.731a7.589,7.589,0,0,0-.029,1.052c.037,1.91-.009,3.822.018,5.733a3.149,3.149,0,0,1-1.659,2.856,2.519,2.519,0,0,1-4.05-1.79,45.617,45.617,0,0,1-.124-6.069c-.033-1.407-.041-1.758-.041-1.758H16.218s-.021.3,0,.994c.059,2.4-.118,4.806.138,7.2.189,1.758.754,3.38,2.569,4a4.743,4.743,0,0,0,5.18-.925,3.738,3.738,0,0,0,.746-1.016c0,1.195-.038,1.883-.038,1.883l2.565-.01s0-.26,0-1.348q0-4.56,0-9.12m9.567,3.455c-1.065-.272-2.146-.483-3.206-.769-.544-.147-1.056-.421-1.018-1.116a1.552,1.552,0,0,1,1.135-1.363,3.938,3.938,0,0,1,4.021.9c.15.16.452.493.452.493l1.684-1.4a8.168,8.168,0,0,0-.918-.941,5.917,5.917,0,0,0-1.371-.925,6.845,6.845,0,0,0-5.06-.058,3.467,3.467,0,0,0-2.27,4.309c.475,1.558,1.671,2.122,3.1,2.482,1.093.276,2.2.413,3.29.712a1.416,1.416,0,0,1,1.039,1.424c-.022.681-.858,1.177-1.751,1.328a5.318,5.318,0,0,1-4.109-1.191,1.891,1.891,0,0,0-.612-.508l-1.617,1.484a5.262,5.262,0,0,0,.777.831c1.4,1.252,2.9,1.52,5.195,1.539,3.1.024,5.122-2.279,4.45-4.644-.453-1.594-1.747-2.22-3.208-2.593M13.948,70.591a4.326,4.326,0,0,1-3.222,3.982,6.189,6.189,0,0,1-1.874.324C6.217,74.894,0,74.91,0,74.91V57.925s5.832-.015,8.293.025a4.452,4.452,0,0,1,4.528,3.109c.467,1.765,0,3.86-1.6,4.637-.105.051-.595.285-.625.3a3.668,3.668,0,0,1,.825.257,4.193,4.193,0,0,1,2.531,4.339M2.712,60.3l0,4.935,2.423-.01c.578,0,1.157.018,1.734-.006.431-.017.861-.085,1.291-.138a2.32,2.32,0,0,0,.006-4.618,40.409,40.409,0,0,0-4.76-.162c-.537-.006-.7,0-.7,0m8.419,9.721A2.13,2.13,0,0,0,9,67.755a54.3,54.3,0,0,0-5.539-.16c-.568-.01-.755,0-.755,0l0,4.94s4.194,0,4.886-.023c.489-.018.978-.085,1.464-.151a2.2,2.2,0,0,0,2.07-2.342M43,62.725v12l2.436,0-.02-12Zm1.218-5.312a1.67,1.67,0,1,0,1.669,1.67,1.669,1.669,0,0,0-1.669-1.67M95.1,67.875c-1.065-.272-2.146-.483-3.206-.769-.544-.147-1.056-.421-1.018-1.116a1.552,1.552,0,0,1,1.136-1.363,3.938,3.938,0,0,1,4.02.9c.15.16.452.493.452.493l1.684-1.4a8.167,8.167,0,0,0-.918-.941,5.917,5.917,0,0,0-1.371-.925,6.845,6.845,0,0,0-5.06-.058,3.467,3.467,0,0,0-2.27,4.309c.475,1.558,1.672,2.122,3.1,2.482,1.094.276,2.2.413,3.29.712a1.416,1.416,0,0,1,1.039,1.424c-.021.681-.858,1.177-1.751,1.328a5.318,5.318,0,0,1-4.109-1.191,1.891,1.891,0,0,0-.612-.508l-1.617,1.484a5.261,5.261,0,0,0,.777.831c1.4,1.252,2.9,1.52,5.195,1.539,3.1.024,5.122-2.279,4.45-4.644-.452-1.594-1.747-2.22-3.208-2.593m46.258-5.506a3.392,3.392,0,0,0-3.02,1.969c-.01-1.184,0-1.6,0-1.6l-2.48-.013V74.718h2.46s-.022-4.662.008-6.6a3.084,3.084,0,0,1,2.808-3.238c1.378-.019,1.529-.015,1.529-.015v-2.5s-.652-.01-1.306,0m9.832,10.214c-1.783,0-2.387-.568-2.431-2.384-.036-1.475-.02-4.429-.02-4.429l.007-.961h4.011l.029-2.078-4.047-.015.007-3.65H146.32l-.015,3.665-2.395.015L143.9,64.8l2.41.029s0,4.887.043,6.565A3.758,3.758,0,0,0,150,74.915a7.274,7.274,0,0,0,2.929-.337V72.472a5.981,5.981,0,0,1-1.3.108c-.145,0-.29,0-.435,0m-77.2-3.59c.007.621,0,.708,0,.708s-3.285-.009-4.5-.008l-4.347,0a2.231,2.231,0,0,0,.227,1.124,3.66,3.66,0,0,0,5.593,1.454c.268-.184.734-.558.734-.558l1.5,1.39a6.166,6.166,0,0,1-.591.635,6.482,6.482,0,0,1-6.609.981c-2.315-.829-3.182-2.759-3.405-5.093-.234-2.45.168-4.6,2.27-6.157a5.557,5.557,0,0,1,8.821,3.12,9.986,9.986,0,0,1,.31,2.4m-2.8-1.972c-.395-1.527-1.17-2.5-2.929-2.5a3.3,3.3,0,0,0-3.01,2.795c-.071.411-.007.521-.007.521s2.112,0,2.949,0c.778,0,3.082.006,3.082.006s.081-.182-.085-.823m117.5-4.651a3.392,3.392,0,0,0-3.02,1.969c-.009-1.184,0-1.6,0-1.6l-2.48-.013V74.718h2.461s-.022-4.662.008-6.6a3.084,3.084,0,0,1,2.808-3.238c1.378-.019,1.529-.015,1.529-.015v-2.5s-.652-.01-1.306,0m-8.267,6.623c.007.621,0,.708,0,.708s-3.286-.009-4.5-.008l-4.347,0a2.23,2.23,0,0,0,.227,1.124,3.66,3.66,0,0,0,5.592,1.454c.269-.184.734-.558.734-.558l1.5,1.39a6.164,6.164,0,0,1-.591.635,6.482,6.482,0,0,1-6.609.981c-2.315-.829-3.182-2.759-3.405-5.093-.234-2.45.168-4.6,2.27-6.157a5.557,5.557,0,0,1,8.821,3.12,9.987,9.987,0,0,1,.31,2.4m-2.8-1.972c-.395-1.527-1.17-2.5-2.929-2.5a3.3,3.3,0,0,0-3.01,2.795c-.072.411-.007.521-.007.521s2.112,0,2.948,0c.779,0,3.082.006,3.082.006s.081-.182-.085-.823m-14.1-4.3a4.663,4.663,0,0,0-5.255,1.235c-.09.1-.507.685-.507.685l.019-1.883h-2.455v12h2.455s-.014-4.74-.046-6.609a3.387,3.387,0,0,1,1.111-2.532,3.2,3.2,0,0,1,3.47-.729c1.111.363,1.454,1.654,1.467,2.72.022,1.852-.017,7.149-.017,7.149h2.554V68.047s0-.15-.056-1.163c-.1-1.842-.824-3.551-2.741-4.162M82.92,67.875c-1.065-.272-2.146-.483-3.206-.769-.544-.147-1.056-.421-1.018-1.116a1.551,1.551,0,0,1,1.135-1.363,3.938,3.938,0,0,1,4.021.9c.15.16.452.493.452.493l1.684-1.4a8.231,8.231,0,0,0-.918-.941,5.947,5.947,0,0,0-1.371-.925,6.845,6.845,0,0,0-5.06-.058,3.467,3.467,0,0,0-2.27,4.309c.476,1.558,1.672,2.122,3.1,2.482,1.093.276,2.2.413,3.29.712a1.417,1.417,0,0,1,1.039,1.424c-.022.681-.858,1.177-1.751,1.328a5.317,5.317,0,0,1-4.109-1.191,1.9,1.9,0,0,0-.612-.508l-1.616,1.484a5.261,5.261,0,0,0,.777.831c1.4,1.252,2.9,1.52,5.195,1.539,3.1.024,5.122-2.279,4.45-4.644-.453-1.594-1.747-2.22-3.208-2.593m49.653,6.174c.006.639.006.679.006.679h-2.363s0-.777,0-1.886a5.641,5.641,0,0,1-4.521,2.071,3.5,3.5,0,0,1-3.752-2.846,3.434,3.434,0,0,1,2.238-4.049,6.113,6.113,0,0,1,2.215-.357c.985.015,3.754.006,3.754.006a4.667,4.667,0,0,0-.1-.982,2.227,2.227,0,0,0-2.352-2.005,3.578,3.578,0,0,0-3.03.952,6.99,6.99,0,0,0-.621.691l-1.673-1.5A3.585,3.585,0,0,1,123.7,63.49a6.511,6.511,0,0,1,5.981-.711,4.118,4.118,0,0,1,2.858,4.151c.076,2.371.008,4.747.03,7.119m-2.444-4.535s-3.07,0-3.462,0a2.754,2.754,0,0,0-1.381.3,1.512,1.512,0,0,0-.838,1.474,1.223,1.223,0,0,0,.984,1.354,3.945,3.945,0,0,0,4.5-1.7,2.506,2.506,0,0,0,.2-1.428m-10.258-8.251c.749,2.122.516,5.112-1.314,6.681a5.22,5.22,0,0,1-3.6,1.186c-1.5.036-1.809.024-1.809.024l-3.705.024,0,5.551h-2.667l-.04-16.81s5.753-.006,8.1.029a5.232,5.232,0,0,1,5.039,3.316M117.5,63.6c-.033-1.693-.678-2.965-2.3-3.163a39.231,39.231,0,0,0-4.752-.154h-.987v6.444s3.876.1,5.458-.093A2.782,2.782,0,0,0,117.5,63.6m-9.015-25.94V1.239h-7.048L89.194,23.386,76.948,1.239h-7.2V37.656h5.872V9.734l10.75,19.315h5.5L102.6,9.734V37.656Zm6.944-6.186a15.167,15.167,0,0,1-1.726-7.334,15.729,15.729,0,0,1,1.684-7.41,12.621,12.621,0,0,1,4.7-5.038,13,13,0,0,1,6.9-1.823,11.411,11.411,0,0,1,10.966,6.958,18.472,18.472,0,0,1,1.51,7.751v1.607H119.523a8.664,8.664,0,0,0,2.693,5.239,7.856,7.856,0,0,0,5.42,1.913,11.827,11.827,0,0,0,4.523-.786,11.451,11.451,0,0,0,3.562-2.366l3.117,3.827a16.274,16.274,0,0,1-11.418,4.265,13.953,13.953,0,0,1-7.174-1.8,12.686,12.686,0,0,1-4.822-5m4.063-9.553h14.333a8.094,8.094,0,0,0-2.1-5.225l-.007.014a6.461,6.461,0,0,0-4.871-1.886,6.7,6.7,0,0,0-4.871,1.92,9.046,9.046,0,0,0-2.484,5.177m27.1,6.276q-.007,10.033,9.171,10.033a17.529,17.529,0,0,0,2.54-.181,16.082,16.082,0,0,0,2.164-.473V32.821c-.619.1-1.19.188-1.712.244a16.341,16.341,0,0,1-1.9.09,4.265,4.265,0,0,1-3.562-1.294,7.073,7.073,0,0,1-1.037-4.342V15.335h8.21V10.52h-8.21V2.561H146.59v7.96h-5.413v4.808h5.413ZM190,10.52V37.656h-5.566V33.864a10.031,10.031,0,0,1-3.771,3.284,11.329,11.329,0,0,1-5.2,1.155,11.207,11.207,0,0,1-6.353-1.83,12.527,12.527,0,0,1-4.356-5.044,16.333,16.333,0,0,1-1.586-7.341,16.055,16.055,0,0,1,1.614-7.355,12.442,12.442,0,0,1,4.453-5.017,11.83,11.83,0,0,1,6.54-1.823,11.257,11.257,0,0,1,4.989,1.078A9.814,9.814,0,0,1,184.434,14V10.52Zm-5.664,17.6-.007-8.092a7.7,7.7,0,0,0-2.874-3.653,7.864,7.864,0,0,0-4.537-1.336,7.355,7.355,0,0,0-5.8,2.435,9.665,9.665,0,0,0-2.157,6.6,9.858,9.858,0,0,0,2.087,6.624,7.013,7.013,0,0,0,5.643,2.449,8.3,8.3,0,0,0,4.676-1.392,7.58,7.58,0,0,0,2.964-3.639M47.669,38.31c-5.552,0-8.621-3.124-14.125-12.336l-2.825-4.752c-.675-1.127-1.308-2.178-1.913-3.159l-4.237,7.494C18.543,36.084,15.154,38.31,10.437,38.31,3.9,38.31,0,33.21,0,25.132,0,12.2,7.181,0,16.553,0c4.6,0,8.44,2.227,13.032,8.078C32.932,3.555,36.627,0,41.351,0,50.271,0,57.612,11.355,57.6,24.9c0,8.245-3.549,13.415-9.929,13.415M25.877,13.526C22.043,8,19.489,6.255,16.476,6.255c-5.573,0-10.249,9.588-10.249,18.96,0,4.383,1.753,6.84,4.467,6.84s4.418-1.719,9.289-9.372c0,0,2.227-3.528,5.893-9.157M52.087,25.3c0-11.216-4.933-20.359-11.133-20.359-2.978,0-5.5,2.345-8.544,7.041q1.245,1.886,2.637,4.105l3.375,5.629c5.281,8.5,6.61,10.374,9.358,10.346,2.915,0,4.307-2.484,4.307-6.763" fill="#fff"/></svg>