<svg xmlns="http://www.w3.org/2000/svg" xmlns:xlink="http://www.w3.org/1999/xlink" width="140" height="55.484" viewBox="0 0 140 55.484"><defs><radialGradient id="a" cx="0.452" cy="0.492" r="0.82" gradientTransform="matrix(0.59, 0.495, -0.217, 0.561, 0.293, -0.006)" gradientUnits="objectBoundingBox"><stop offset="0" stop-color="#0064e0"/><stop offset="0.66" stop-color="#0064e0"/><stop offset="0.94" stop-color="#007ef7"/></radialGradient></defs><g transform="translate(-256.28 -926.069)"><path d="M39.018,92.306v8.876H37.223V92.306Zm8.608,0a3.422,3.422,0,0,0-3.871.911c-.067.077-.374.515-.374.515V92.337H41.586v8.876H43.4s0-3.5-.031-4.883a2.505,2.505,0,0,1,.815-1.873,2.352,2.352,0,0,1,2.563-.515,1.992,1.992,0,0,1,1.082,2.012v5.285h1.882V96.273s0-.108-.041-.859a3.113,3.113,0,0,0-2.041-3.108ZM15.839,98.151a3.2,3.2,0,0,1-2.353,2.928,4.686,4.686,0,0,1-1.384.242H5.58V88.766h6.111a3.244,3.244,0,0,1,3.332,2.3,2.868,2.868,0,0,1-1.179,3.427l-.461.221a2.755,2.755,0,0,1,.61.19,3.089,3.089,0,0,1,1.841,3.231ZM7.554,90.52v3.653H10.62a7.423,7.423,0,0,0,.948-.1,1.714,1.714,0,0,0,0-3.412,29.542,29.542,0,0,0-3.507-.123C7.672,90.515,7.554,90.52,7.554,90.52Zm6.2,7.2a1.577,1.577,0,0,0-1.569-1.672,40.029,40.029,0,0,0-4.1-.118H7.528v3.653h3.589a7.646,7.646,0,0,0,1.077-.113,1.624,1.624,0,0,0,1.564-1.765Zm11.966-4.117v-1.3H23.775a5.846,5.846,0,0,0,0,.777v4.24a2.343,2.343,0,0,1-1.225,2.115,1.856,1.856,0,0,1-2.984-1.322,32.96,32.96,0,0,1-.092-4.492c0-1.029-.031-1.3-.031-1.3H17.505v.736c.046,1.775-.087,3.551.1,5.326.138,1.3.554,2.5,1.892,2.954a3.494,3.494,0,0,0,3.82-.684,2.727,2.727,0,0,0,.549-.751c0,.885-.026,1.394-.026,1.394h1.887V93.582ZM38.136,88.39a1.228,1.228,0,1,0,.872.36,1.233,1.233,0,0,0-.872-.36Zm-5.363,7.718c-.784-.2-1.579-.355-2.363-.566-.4-.108-.779-.314-.749-.828a1.147,1.147,0,0,1,.836-1.029,2.91,2.91,0,0,1,2.963.669c.113.118.333.365.333.365l1.241-1.029A6.133,6.133,0,0,0,34.357,93a4.541,4.541,0,0,0-1.025-.684,5.043,5.043,0,0,0-3.712-.005,2.575,2.575,0,0,0-1.676,3.185,2.8,2.8,0,0,0,2.287,1.837c.8.206,1.62.3,2.42.515a1.059,1.059,0,0,1,.769,1.029c0,.515-.636.87-1.292.983a3.907,3.907,0,0,1-3.025-.88,1.426,1.426,0,0,0-.451-.376l-1.195,1.1a4.007,4.007,0,0,0,.574.612,5.154,5.154,0,0,0,3.825,1.137c2.287,0,3.779-1.683,3.281-3.432a2.917,2.917,0,0,0-2.363-1.888Zm27.3.828v.515H53.552a1.667,1.667,0,0,0,.169.828,2.676,2.676,0,0,0,4.1,1.081c.195-.139.513-.417.513-.417l1.1,1.029a4.11,4.11,0,0,1-.436.468,4.739,4.739,0,0,1-4.865.726c-1.707-.612-2.348-2.058-2.512-3.767-.169-1.811.123-3.4,1.671-4.549a4.1,4.1,0,0,1,6.5,2.305,7.394,7.394,0,0,1,.277,1.78Zm-2.051-1.456a2.062,2.062,0,0,0-2.158-1.852,2.439,2.439,0,0,0-2.215,2.058c-.051.3,0,.386,0,.386h4.44s.041-.1-.082-.576ZM116.982,99.6c-1.312,0-1.759-.422-1.794-1.765V93.85h2.958V92.306h-2.979v-2.7h-1.784v2.712h-1.764v1.544h1.774s0,3.6.031,4.852a2.773,2.773,0,0,0,2.692,2.609,5.375,5.375,0,0,0,2.158-.247V99.535a4.389,4.389,0,0,1-.964.077Zm21.533-2.655v.515h-6.521a1.667,1.667,0,0,0,.169.828,2.676,2.676,0,0,0,4.1,1.081c.195-.139.538-.417.538-.417l1.107,1.029a4.66,4.66,0,0,1-.436.468,4.749,4.749,0,0,1-4.871.726c-1.707-.612-2.343-2.058-2.512-3.767-.169-1.811.128-3.4,1.677-4.549a4.1,4.1,0,0,1,6.5,2.305,7.145,7.145,0,0,1,.236,1.775Zm-2.051-1.456a2.069,2.069,0,0,0-2.158-1.852,2.439,2.439,0,0,0-2.22,2.058c-.051.3,0,.386,0,.386h4.445a1.182,1.182,0,0,0-.092-.581Zm-10.418-3.18a3.422,3.422,0,0,0-3.871.911c-.067.077-.374.515-.374.515V92.337h-1.81v8.876h1.81s0-3.5-.031-4.883a2.5,2.5,0,0,1,.815-1.873,2.352,2.352,0,0,1,2.563-.515,1.992,1.992,0,0,1,1.082,2.012v5.285h1.882V96.273s0-.113-.041-.859A3.124,3.124,0,0,0,126.046,92.306ZM66.651,96.114c-.784-.2-1.579-.355-2.363-.566-.4-.108-.774-.314-.749-.828a1.157,1.157,0,0,1,.836-1.029,2.91,2.91,0,0,1,2.963.669c.113.118.333.365.333.365L68.912,93.7A6.133,6.133,0,0,0,68.236,93a4.429,4.429,0,0,0-1.025-.684,5.043,5.043,0,0,0-3.727-.041,2.575,2.575,0,0,0-1.671,3.185A2.785,2.785,0,0,0,64.093,97.3c.8.206,1.62.3,2.425.515a1.029,1.029,0,0,1,.764,1.029c0,.515-.631.87-1.292.983a3.912,3.912,0,0,1-3.025-.88,1.36,1.36,0,0,0-.451-.376l-1.195,1.1a4.007,4.007,0,0,0,.574.612,5.16,5.16,0,0,0,3.83,1.137c2.281,0,3.773-1.683,3.276-3.432a2.894,2.894,0,0,0-2.348-1.858Zm77.929-4.07a2.5,2.5,0,0,0-2.225,1.456V92.321H140.53v8.866h1.81V96.309a2.262,2.262,0,0,1,2.051-2.4h1.128V92.054s-.446-.005-.928,0Zm-34.863,0a2.5,2.5,0,0,0-2.225,1.456c0-.875,0-1.178,0-1.178h-1.83v8.866h1.815V96.309a2.262,2.262,0,0,1,2.051-2.4h1.123V92.054s-.456-.005-.938,0Zm-15.832-.818a4.716,4.716,0,0,1-.969,4.94,3.805,3.805,0,0,1-2.651.875,11.752,11.752,0,0,1-1.333,0H86.205v4.117H84.237l-.031-12.432h5.968a3.861,3.861,0,0,1,3.707,2.511Zm-1.748,1.724c-.026-1.25-.513-2.192-1.7-2.336a28.376,28.376,0,0,0-3.5-.113H86.21v4.765a40.016,40.016,0,0,0,4.019-.072,2.056,2.056,0,0,0,1.9-2.233Zm-16.5,3.165c-.79-.2-1.584-.355-2.364-.566-.4-.108-.779-.314-.754-.828a1.152,1.152,0,0,1,.841-1.029,2.9,2.9,0,0,1,2.958.669c.113.118.333.365.333.365L77.89,93.7A6.131,6.131,0,0,0,77.213,93a4.428,4.428,0,0,0-1.025-.684,5.043,5.043,0,0,0-3.727-.041,2.575,2.575,0,0,0-1.671,3.185A2.785,2.785,0,0,0,73.07,97.3c.8.206,1.625.3,2.425.515a1.029,1.029,0,0,1,.764,1.029c0,.515-.631.87-1.287.983A3.917,3.917,0,0,1,71.932,99a1.36,1.36,0,0,0-.451-.376l-1.189,1.1a4.11,4.11,0,0,0,.569.612,5.16,5.16,0,0,0,3.83,1.137c2.281,0,3.773-1.683,3.281-3.432a2.863,2.863,0,0,0-2.343-1.909Zm27.613,4.569v.515h-1.738V99.8a4.126,4.126,0,0,1-3.327,1.544,2.639,2.639,0,0,1-1.118-5.1,4.415,4.415,0,0,1,1.635-.262h2.763a3.584,3.584,0,0,0-.072-.731,1.648,1.648,0,0,0-1.733-1.482,2.629,2.629,0,0,0-2.235.7,4.866,4.866,0,0,0-.456.515L95.731,93.85a2.63,2.63,0,0,1,.974-.988,4.784,4.784,0,0,1,4.4-.515,3.057,3.057,0,0,1,2.107,3.087c.056,1.744-.01,3.5.026,5.259Zm-1.8-3.355H98.879a2.044,2.044,0,0,0-1.025.226,1.117,1.117,0,0,0-.615,1.091.9.9,0,0,0,.723,1,2.924,2.924,0,0,0,3.312-1.261,1.838,1.838,0,0,0,.164-1.045Z" transform="translate(250.726 879.938)" fill="#1c2b33"/><path d="M129.2,7.65h5.213V34.588h-4.343V13.933l-7.945,14.284h-4.065l-7.95-14.284V34.588H105.77V7.65H111.1l9.056,16.379Zm27,11.526a13.652,13.652,0,0,1,1.137,5.732V26.1H142.582a6.4,6.4,0,0,0,1.991,3.859,5.81,5.81,0,0,0,4.024,1.431,8.748,8.748,0,0,0,3.345-.581,8.449,8.449,0,0,0,2.635-1.75l2.305,2.83a12.036,12.036,0,0,1-8.444,3.154,10.291,10.291,0,0,1-5.305-1.333,9.308,9.308,0,0,1-3.566-3.7,11.228,11.228,0,0,1-1.276-5.424,11.583,11.583,0,0,1,1.245-5.48,9.314,9.314,0,0,1,3.473-3.725,9.617,9.617,0,0,1,5.074-1.348A8.444,8.444,0,0,1,156.208,19.176Zm-3.051,3.767a6.01,6.01,0,0,0-1.544-3.864h0a4.78,4.78,0,0,0-3.6-1.394,4.95,4.95,0,0,0-3.6,1.42,6.689,6.689,0,0,0-1.837,3.828ZM166.787,8.628H162.6v5.892h-4V18.07h4v9.514q0,7.425,6.782,7.42a12.761,12.761,0,0,0,1.878-.134,11.383,11.383,0,0,0,1.6-.35V30.986c-.458.077-.88.139-1.266.18a11.672,11.672,0,0,1-1.4.067,3.2,3.2,0,0,1-2.635-.957,5.2,5.2,0,0,1-.767-3.211V18.075h6.072V14.519h-6.072ZM194.7,14.519V34.588h-4.117v-2.81a7.384,7.384,0,0,1-2.789,2.429,8.938,8.938,0,0,1-8.542-.515,9.231,9.231,0,0,1-3.221-3.736,12.062,12.062,0,0,1-1.194-5.408,11.835,11.835,0,0,1,1.194-5.439,9.206,9.206,0,0,1,3.293-3.71,8.778,8.778,0,0,1,4.837-1.348,8.305,8.305,0,0,1,3.689.8,7.25,7.25,0,0,1,2.732,2.244V14.519Zm-4.189,13.019v-5.99a5.727,5.727,0,0,0-2.125-2.7,5.851,5.851,0,0,0-3.355-.988,5.444,5.444,0,0,0-4.286,1.8,7.147,7.147,0,0,0-1.6,4.883,7.292,7.292,0,0,0,1.544,4.9,5.187,5.187,0,0,0,4.173,1.811,6.123,6.123,0,0,0,3.458-1.029,5.6,5.6,0,0,0,2.187-2.691Z" transform="translate(201.578 919.335)" fill="#1c2b33"/><path d="M36.131,5.87c-3.494,0-6.226,2.629-8.7,5.974C24.013,7.517,21.173,5.87,17.772,5.87,10.84,5.87,5.53,14.89,5.53,24.461c0,5.974,2.887,9.746,7.718,9.746,3.489,0,5.995-1.647,10.451-9.432l3.134-5.542c.448.726.916,1.5,1.415,2.336l2.089,3.514c4.07,6.808,6.339,9.118,10.425,9.118,4.719,0,7.343-3.823,7.343-9.921C48.136,14.268,42.707,5.87,36.131,5.87ZM20.308,22.645c-3.6,5.66-4.863,6.931-6.869,6.931s-3.3-1.816-3.3-5.058c0-6.931,3.458-14.022,7.58-14.022,2.228,0,4.117,1.292,6.952,5.377C21.955,20.036,20.308,22.645,20.308,22.645Zm13.636-.715-2.5-4.158c-.684-1.091-1.338-2.1-1.95-3.036,2.249-3.478,4.117-5.2,6.319-5.2C40.4,9.539,44.05,16.3,44.05,24.6c0,3.165-1.029,5-3.185,5C38.833,29.607,37.85,28.218,33.944,21.93Z" transform="translate(250.75 920.199)" fill="#007ef7" style="isolation:isolate"/><path d="M43.973,26.011c-.273,2.321-1.286,3.638-3.087,3.638-2.058,0-3.015-1.364-6.921-7.652l-2.516-4.158c-.684-1.091-1.338-2.1-1.95-3.036h0c-.726-1.075-1.415-2.033-2.089-2.887h0c-.417-.515-.823-1.029-1.225-1.472l-.046-.051Q25.562,9.745,25,9.205l-.1-.113q-.262-.252-.515-.479h0c-.175-.154-.355-.3-.515-.437l-.18-.113c-.149-.118-.3-.226-.443-.334l-.093-.062-.515-.34-.129-.077-.422-.216-.123-.067c-.17-.087-.334-.17-.515-.247l-.129-.051L20.905,6.5l-.139-.051c-.17-.062-.345-.118-.515-.165h-.1l-.443-.108-.144-.031-.515-.087h-.067l-.515-.051h-.7C10.84,5.938,5.53,14.958,5.53,24.529c0,4,1.3,7.008,3.6,8.562l1.976-4.631a6.535,6.535,0,0,1-.983-3.854c0-6.931,3.458-14.022,7.58-14.022h0c2.228,0,4.117,1.292,6.952,5.377h0c1.029,1.5,2.223,3.36,3.6,5.66l.314.515,1.765,3.01c4.07,6.813,6.339,9.123,10.425,9.123a6.58,6.58,0,0,0,6.417-4.492Z" transform="translate(250.75 920.132)" fill="url(#a)"/></g></svg>