<svg xmlns="http://www.w3.org/2000/svg" width="100" height="100" viewBox="0 0 100 100"><path d="M27.91,16.7a3.16,3.16,0,1,0,3.16,3.16A3.17,3.17,0,0,0,27.91,16.7Zm0,4.28A1.12,1.12,0,1,1,29,19.86,1.12,1.12,0,0,1,27.91,21ZM21.07,16.7a3.16,3.16,0,1,0,3.16,3.16A3.17,3.17,0,0,0,21.07,16.7Zm0,4.28a1.12,1.12,0,1,1,1.11-1.12A1.12,1.12,0,0,1,21.07,21ZM97.81,80.5l-9.9-15.1a1,1,0,0,0-.65-.45l-.21,0a1,1,0,0,0-.56.17l-1.18.77-3.42-5.22A25.26,25.26,0,0,0,71.48,17.07a8.31,8.31,0,0,0-7.89-5.81h-44a8.28,8.28,0,0,0-8.27,8.27v7h-.51a9.31,9.31,0,0,0-3.61.73,9.42,9.42,0,0,0-4.91,4.91,9.33,9.33,0,0,0-.73,3.62V48.23a9.22,9.22,0,0,0,5.64,8.52,9.11,9.11,0,0,0,3.61.74h.51V63.7A8.28,8.28,0,0,0,19.57,72h44a8.31,8.31,0,0,0,7.92-5.9,25.32,25.32,0,0,0,4.67-1.69l3.43,5.23-1.19.78a1,1,0,0,0-.29,1.41L88.08,87a3.87,3.87,0,0,0,3.25,1.75,3.93,3.93,0,0,0,2.13-.63L96.66,86a3.92,3.92,0,0,0,1.72-2.51A4,4,0,0,0,97.81,80.5Zm-84.47-61a6.24,6.24,0,0,1,6.23-6.23h44a6.24,6.24,0,0,1,5.49,3.29,25.86,25.86,0,0,0-3.82-.29A25.21,25.21,0,0,0,45,26.49H13.34ZM10.79,55.45a7.23,7.23,0,0,1-7.21-7.22V35.75a7.23,7.23,0,0,1,7.21-7.22H43.66a25.2,25.2,0,0,0,.5,26.9v0Zm52.8,14.48h-44a6.24,6.24,0,0,1-6.23-6.23V57.49H45.68a25.18,25.18,0,0,0,19.66,9.36,24.76,24.76,0,0,0,3.78-.3A6.2,6.2,0,0,1,63.59,69.93ZM76,62.2l-.48.23-.16.08A22.73,22.73,0,0,1,71.44,64c-.48.13-1,.24-1.45.34a22.64,22.64,0,0,1-4.65.47A23.3,23.3,0,0,1,47.91,57l-.6-.71c-.19-.23-.36-.46-.54-.7q-.47-.62-.9-1.26a23.31,23.31,0,0,1,.28-25.91l.33-.44.34-.45c.13-.18.26-.35.4-.52a23.22,23.22,0,0,1,18-8.65,23.85,23.85,0,0,1,4.71.49c.49.1,1,.22,1.46.35a23.22,23.22,0,0,1,13.3,9.65l.26-.17-.17.31c.41.64.79,1.3,1.13,2A23.28,23.28,0,0,1,83.67,55.8a23,23,0,0,1-3.18,3.36l-.14.11-.4.34A21.75,21.75,0,0,1,78,61C77.39,61.43,76.71,61.84,76,62.2Zm2,1.23c.39-.23.78-.46,1.16-.71s.76-.52,1.12-.79L83.6,67l-2.28,1.5ZM96.37,83.07a1.88,1.88,0,0,1-.83,1.22l-3.2,2.11a1.89,1.89,0,0,1-1,.29,1.83,1.83,0,0,1-1.54-.82L80.4,71.54l6.36-4.17L96.1,81.62A1.9,1.9,0,0,1,96.37,83.07ZM20.5,47.56a1.37,1.37,0,1,1-1.37-1.37A1.37,1.37,0,0,1,20.5,47.56Zm60.23-16.1a18.55,18.55,0,0,0-3-3.47l-.15-.14c-.22-.19-.43-.4-.66-.58s-.65-.49-1-.73a18.53,18.53,0,0,0-4.3-2.25c-.48-.17-1-.33-1.45-.47a19,19,0,0,0-5-.67,18.26,18.26,0,0,0-10,3,2,2,0,0,0-.33.24l-.42.3c-.27.19-.54.38-.79.58l-.59.53-.21.19a18.36,18.36,0,0,0-3,23.69A18.61,18.61,0,0,0,53.83,56c.32.25.63.49,1,.72s.76.5,1.16.73a18.35,18.35,0,0,0,5.6,2.17,18.7,18.7,0,0,0,3.79.4,18.45,18.45,0,0,0,4.87-.67c.49-.14,1-.29,1.45-.47a17.84,17.84,0,0,0,3-1.43l.14-.08c.2-.12.41-.24.61-.38l.23-.16.14-.11c.34-.23.68-.47,1-.72a18.43,18.43,0,0,0,4-24.54Zm.63,13.45a16.29,16.29,0,0,1-7.07,10.37l-.35.21c-.41.25-.81.49-1.23.7s-.84.42-1.27.59l-.32.11c-.36.14-.72.27-1.08.38a16.28,16.28,0,0,1-8.08.35,17.3,17.3,0,0,1-2.45-.73,16.45,16.45,0,0,1-1.6-.7,13.64,13.64,0,0,1-1.24-.7,16.16,16.16,0,0,1-5.08-4.93,16.42,16.42,0,0,1,3.89-22.09l.2-.15a7.42,7.42,0,0,1,.64-.46l-.17-.26h0l.31.17c.4-.25.8-.48,1.21-.7A16.28,16.28,0,0,1,70,25.89a14.53,14.53,0,0,1,1.4.49c.55.22,1,.45,1.51.69s.8.45,1.19.7.68.45,1,.7a16.34,16.34,0,0,1,6.21,16.44ZM34.73,33.57v16.1a1,1,0,1,1-2,0V33.57a1,1,0,1,1,2,0Zm-7.26,14a1.37,1.37,0,1,1-1.36-1.37A1.36,1.36,0,0,1,27.47,47.56Zm-14.18-.72a1.25,1.25,0,0,1,.23.72,1.28,1.28,0,0,1-.23.72,1.36,1.36,0,0,1-1.13.64,1.32,1.32,0,0,1-.72-.22,1.36,1.36,0,0,1-.65-1.14,1.35,1.35,0,0,1,2.5-.72ZM34.75,16.7a3.16,3.16,0,1,0,3.16,3.16A3.17,3.17,0,0,0,34.75,16.7Zm0,4.28a1.12,1.12,0,1,1,1.11-1.12A1.12,1.12,0,0,1,34.75,21Z" fill="#161616"/></svg>