<svg xmlns="http://www.w3.org/2000/svg" width="190" height="54.01" viewBox="0 0 190 54.01"><path d="M45.646,40.166q-.8-5.35-1.59-10.7-.7-4.765-1.4-9.532-.689-4.693-1.374-9.386a.812.812,0,0,0-.95-.787c-1.018.006-2.035-.069-3.054-.076a1.2,1.2,0,0,1-.921-.365c-.823-.826-1.734-1.573-2.494-2.451a1.835,1.835,0,0,0-2.313-.523c-1.02.378-1.03.334-1.428-.638a9.957,9.957,0,0,0-.51-1.073A5.3,5.3,0,0,0,24.82,1.523c-.327,0-.486-.2-.685-.38A4.4,4.4,0,0,0,20.19.1a8.444,8.444,0,0,0-4.924,3.131,19.732,19.732,0,0,0-4.246,8.811,1.04,1.04,0,0,1-.849.936c-1.507.408-2.975.96-4.487,1.346a2.049,2.049,0,0,0-1.666,2.042c-.472,4.006-1.006,8.006-1.523,12.007C1.862,33.254,1.241,38.14.574,43.02A16.134,16.134,0,0,1,0,46.57v.893c.219.042.438.086.658.124q15.065,2.6,30.132,5.184a6.13,6.13,0,0,0,2.634.24c4.241-1.072,8.492-2.111,12.739-3.159.921-.227.907-.241.761-1.185-.439-2.832-.855-5.667-1.278-8.5M24.022,4.257a15.06,15.06,0,0,1,.582,3.6c.149.488-.179.74-.783.906-1.383.381-2.747.826-4.118,1.25-.276.085-.611.217-.453-.287a10.534,10.534,0,0,1,3.735-5.818c.715-.508.755-.473,1.038.349m-11.144,7.23A17.719,17.719,0,0,1,17.41,3.5a5.166,5.166,0,0,1,4.037-1.748,1.7,1.7,0,0,1,1.064.372c-3.005,1.96-4.376,4.919-5.191,8.216a.706.706,0,0,1-.564.583c-1.117.331-2.232.671-3.337,1.039-.514.172-.709.095-.54-.475M24.766,17.72q-.72,2.456-1.328,4.944c-.127.523-.319.541-.758.379a8.606,8.606,0,0,0-3.956-.436,3.858,3.858,0,0,0-1.413.432,2.159,2.159,0,0,0-.459,3.646,26.489,26.489,0,0,0,2.868,2,8.951,8.951,0,0,1,3.66,4.091c1.251,3.281.482,8.739-4.065,10.562a7.6,7.6,0,0,1-2.729.586,11.461,11.461,0,0,1-7.208-2.2A1.043,1.043,0,0,1,8.9,40.407a28.351,28.351,0,0,0,.734-3.1c.122-.65.251-.852.9-.4a8.813,8.813,0,0,0,3.747,1.554,2.252,2.252,0,0,0,2.383-.843,2.324,2.324,0,0,0,.027-2.535,4.475,4.475,0,0,0-1.351-1.465c-.612-.466-1.234-.917-1.86-1.364-2.612-1.865-3.336-4.481-2.823-7.477a9.72,9.72,0,0,1,8.947-8.115,13.469,13.469,0,0,1,4.658.192c.517.127.657.331.5.872m3.674-10.4c-.574.153-1.137.345-1.7.529-.383.125-.465-.051-.484-.4a19.788,19.788,0,0,0-.19-2.067c-.107-.656-.3-1.3-.487-2.048a2.966,2.966,0,0,1,1.69.957A7.085,7.085,0,0,1,28.7,6.784c.113.3.068.445-.263.534M189.908,21.36c-3.581,7.355-6.645,14.96-10.72,22.074a29.7,29.7,0,0,1-5.239,6.91,14.37,14.37,0,0,1-6.1,3.553c-.032.009-.049.074-.073.113h-.3c-.538-1.644-1.06-3.293-1.625-4.927-.152-.44-.023-.581.375-.728a12.2,12.2,0,0,0,6.36-5.011,2.492,2.492,0,0,0,.339-1.9c-1.257-6.688-2.485-13.382-3.743-20.069-.088-.467.079-.485.439-.483,1.913.01,3.827.018,5.74-.005.428,0,.552.158.591.548q.677,6.841,1.375,13.679a5.584,5.584,0,0,0,.254,1.32c.408-1.153.8-2.313,1.227-3.457,1.445-3.838,2.912-7.668,4.351-11.509a.766.766,0,0,1,.863-.583c1.838.03,3.677.014,5.516.011.333,0,.612-.031.369.467m-55.167-.921a7.607,7.607,0,0,0-5.521,1.549c-.8.58-1.454,1.3-2.228,1.994.086-.894.14-1.794.271-2.682.066-.451-.059-.55-.484-.544-1.54.02-3.081.024-4.621,0-.459-.008-.569.161-.625.588-.246,1.89-.475,3.785-.824,5.658q-2.355,12.622-4.784,25.231c-.086.451-.03.6.475.59,1.689-.032,3.38-.047,5.068.006.653.021.87-.184.978-.812.472-2.755,1-5.5,1.512-8.25.045-.239,0-.539.479-.351a9.882,9.882,0,0,0,9.733-1.285c5.408-3.76,7.329-11.977,5.835-17.01a5.972,5.972,0,0,0-5.264-4.68m-.973,8.993a13.655,13.655,0,0,1-2.966,8.225,3.952,3.952,0,0,1-5.326,1.028c-.271-.167-.453-.321-.377-.7a75.239,75.239,0,0,1,1.516-7.561,8.349,8.349,0,0,1,2.122-3.611,3.953,3.953,0,0,1,1.638-.989,2.426,2.426,0,0,1,3.223,1.98,5.429,5.429,0,0,1,.169,1.626M93.962,24.781a19.64,19.64,0,0,1-.517,6.485c-.708,3.845-1.466,7.681-2.172,11.526-.119.648-.3.949-1.059.911-1.636-.079-3.28-.047-4.919-.012-.575.013-.645-.172-.545-.685.821-4.252,1.634-8.506,2.411-12.766a8.063,8.063,0,0,0,.116-2.956,1.874,1.874,0,0,0-2.5-1.6,4.493,4.493,0,0,0-2.554,1.931,13.5,13.5,0,0,0-2.128,5.643c-.606,3.235-1.235,6.465-1.831,9.7-.1.548-.29.758-.9.737-1.688-.057-3.379-.041-5.069-.007-.535.011-.621-.16-.529-.638Q74.8,27.234,77.8,11.407c.1-.5.291-.569.72-.565,1.714.018,3.43.037,5.143-.008.6-.016.691.151.583.7Q83.147,17.1,82.1,22.684c-.06.317-.289.651-.116.989l.031-.02.045.133-.006,0,.007.009v0l0,0a8.079,8.079,0,0,1,7.665-3.312,4.665,4.665,0,0,1,4.235,4.3m23.263,2.787a8,8,0,0,0-6.611-7,11.148,11.148,0,0,0-9.12,2.221c-4.6,3.677-6.261,8.621-5.538,14.33a7.719,7.719,0,0,0,6.238,6.752,11.3,11.3,0,0,0,10.021-2.5c3.6-3.061,4.977-7.144,5.163-11.722a12.056,12.056,0,0,0-.153-2.078M110.8,29.351a15.956,15.956,0,0,1-2.026,7.512,5.788,5.788,0,0,1-1.333,1.585,2.918,2.918,0,0,1-4.814-1.438,9.251,9.251,0,0,1-.021-4.559,12.552,12.552,0,0,1,2.215-5.445,4.933,4.933,0,0,1,1-.994A2.936,2.936,0,0,1,110.64,27.8a5.749,5.749,0,0,1,.156,1.552m55.727-3.628c-1.118-.023-2.237.016-3.354-.02-.46-.015-.639.129-.722.577q-1.27,6.824-2.572,13.642c-.207,1.094-.415,2.188-.609,3.284-.054.305-.147.484-.514.481-1.864-.016-3.727-.021-5.591,0-.521.006-.392-.246-.332-.556q1.554-8.168,3.093-16.339c.064-.339.118-.679.187-1.079-.856,0-1.673-.011-2.491.006-.339.007-.5-.04-.413-.447q.416-1.96.767-3.934c.07-.391.229-.514.629-.5.792.026,1.775.267,2.327-.1s.384-1.454.594-2.21a11.461,11.461,0,0,1,3.041-5.6c2.837-2.626,6.2-2.958,9.805-2.14.322.073.428.218.331.577-.373,1.385-.714,2.778-1.053,4.172-.079.324-.181.411-.551.334-2.949-.617-4.684.531-5.356,3.5-.335,1.483-.335,1.483,1.172,1.483.845,0,1.69.016,2.535-.007.381-.01.443.1.369.464q-.4,1.964-.718,3.943c-.06.371-.2.481-.572.474M71.591,22.063c-.424,1.134-.807,2.285-1.137,3.45-.145.511-.329.513-.765.351a8.291,8.291,0,0,0-4.447-.568c-1.558.289-2.384,1.549-1.815,2.767a2.77,2.77,0,0,0,1.05,1.13c.977.634,1.989,1.218,2.926,1.905a6.474,6.474,0,0,1,2.865,4.18,7.078,7.078,0,0,1-4.262,7.665,13.7,13.7,0,0,1-11.27-.065c-.539-.231-.692-.473-.461-1.049.441-1.1.816-2.228,1.181-3.357.134-.413.238-.517.688-.306a11.1,11.1,0,0,0,4.581,1.153,4.165,4.165,0,0,0,1.4-.16,2.122,2.122,0,0,0,.994-3.559,6.781,6.781,0,0,0-1.765-1.352,13.819,13.819,0,0,1-2.8-2.076c-2.988-2.993-1.812-7.515,1.086-9.7a11.3,11.3,0,0,1,6.993-2.048,13.812,13.812,0,0,1,4.545.766c.44.174.6.365.413.87m79.8-.518c-1.337,6.85-2.646,13.7-3.974,20.556-.307,1.582-.326,1.579-1.967,1.579h-3.8c-.992,0-.981,0-.8-.946q.871-4.52,1.727-9.043c.776-4.06,1.564-8.117,2.317-12.18.091-.49.257-.638.755-.628,1.739.032,3.479.036,5.219,0,.572-.012.624.15.523.664m1.5-7.082a3.645,3.645,0,0,1-3.861,3.658A3,3,0,0,1,146,14.8a3.678,3.678,0,0,1,3.817-3.634,3.041,3.041,0,0,1,3.07,3.294" fill="#fdfdfd"/></svg>