<svg xmlns="http://www.w3.org/2000/svg" width="85" height="13.66" viewBox="0 0 110.643 17.795">
  <g id="star" transform="translate(-153 -1555.603)">
    <path id="Path_79" data-name="Path 79" d="M113.437,45.128l2.524,5.114,5.644.82a.658.658,0,0,1,.365,1.122l-4.084,3.981.964,5.621a.658.658,0,0,1-.954.693l-5.048-2.654L107.8,62.479a.658.658,0,0,1-.954-.693l.964-5.621-4.084-3.981a.658.658,0,0,1,.365-1.122l5.644-.82,2.524-5.114A.658.658,0,0,1,113.437,45.128Z" transform="translate(49.475 1510.842)" fill="#fbbc05"/>
    <path id="Path_80" data-name="Path 80" d="M113.437,45.128l2.524,5.114,5.644.82a.658.658,0,0,1,.365,1.122l-4.084,3.981.964,5.621a.658.658,0,0,1-.954.693l-5.048-2.654L107.8,62.479a.658.658,0,0,1-.954-.693l.964-5.621-4.084-3.981a.658.658,0,0,1,.365-1.122l5.644-.82,2.524-5.114A.658.658,0,0,1,113.437,45.128Z" transform="translate(72.475 1510.842)" fill="#fbbc05"/>
    <path id="Path_81" data-name="Path 81" d="M113.437,45.128l2.524,5.114,5.644.82a.658.658,0,0,1,.365,1.122l-4.084,3.981.964,5.621a.658.658,0,0,1-.954.693l-5.048-2.654L107.8,62.479a.658.658,0,0,1-.954-.693l.964-5.621-4.084-3.981a.658.658,0,0,1,.365-1.122l5.644-.82,2.524-5.114A.658.658,0,0,1,113.437,45.128Z" transform="translate(95.475 1510.842)" fill="#fbbc05"/>
    <path id="Path_82" data-name="Path 82" d="M113.437,45.128l2.524,5.114,5.644.82a.658.658,0,0,1,.365,1.122l-4.084,3.981.964,5.621a.658.658,0,0,1-.954.693l-5.048-2.654L107.8,62.479a.658.658,0,0,1-.954-.693l.964-5.621-4.084-3.981a.658.658,0,0,1,.365-1.122l5.644-.82,2.524-5.114A.658.658,0,0,1,113.437,45.128Z" transform="translate(118.475 1510.842)" fill="#fbbc05"/>
    <path id="Path_83" data-name="Path 83" d="M113.437,45.128l2.524,5.114,5.644.82a.658.658,0,0,1,.365,1.122l-4.084,3.981.964,5.621a.658.658,0,0,1-.954.693l-5.048-2.654L107.8,62.479a.658.658,0,0,1-.954-.693l.964-5.621-4.084-3.981a.658.658,0,0,1,.365-1.122l5.644-.82,2.524-5.114A.658.658,0,0,1,113.437,45.128Z" transform="translate(141.475 1510.842)" fill="#fbbc05"/>
  </g>
</svg>
