<svg xmlns="http://www.w3.org/2000/svg" width="100" height="100" viewBox="0 0 100 100"><path d="M92.4,8.34l-3.78-2.6a3.46,3.46,0,0,0-2-.62h-.14a2.89,2.89,0,0,0-.52,0,3.59,3.59,0,0,0-2.18,1.4l-.27.26L67.72,24.44H12.43a6.33,6.33,0,0,0-6.32,6.32V75a6.34,6.34,0,0,0,6.32,6.36H38l-1.64,5.74h-.9A2.52,2.52,0,0,0,33,89.57v2.76a2.58,2.58,0,0,0,2.52,2.56h24.8a2.57,2.57,0,0,0,2.51-2.56V89.57a2.51,2.51,0,0,0-2.51-2.51h-.9L57.7,81.32H83.13A6.35,6.35,0,0,0,89.46,75V30.76a6.31,6.31,0,0,0-2.83-5.27l0,0,6.7-12.25A3.59,3.59,0,0,0,92.4,8.34ZM60.68,89.57v2.76a.39.39,0,0,1-.4.44H35.48a.43.43,0,0,1-.44-.44V89.57a.43.43,0,0,1,.44-.44h24.8A.39.39,0,0,1,60.68,89.57Zm26.7-19V75a4.2,4.2,0,0,1-4.25,4.25H12.43A4.21,4.21,0,0,1,8.18,75v-4.4Zm0-1.82H8.18v-38a4.2,4.2,0,0,1,4.25-4.24H66l-3,3.74-2.9,3.58a3.09,3.09,0,0,0-.62,2.52,5.72,5.72,0,0,0,1,2,1.08,1.08,0,0,0,.27.3l1.58,1.08h0A14.53,14.53,0,0,1,59,41.6l-.61.25A11.63,11.63,0,0,0,52.94,46c-1.42,2.05-1.31,4.41-1,6.64.08.5.16,1,.25,1.53a19.69,19.69,0,0,1,.45,5,1.06,1.06,0,0,0,.94,1.14h.11a1,1,0,0,0,.45-.1,20.54,20.54,0,0,1,4.88-1.35c.49-.09,1-.18,1.46-.29,2.23-.47,4.48-1.18,5.9-3.22a11.26,11.26,0,0,0,2-6.48l0-.56a15.25,15.25,0,0,1,.53-4h0l1.6,1.1a3.3,3.3,0,0,0,1.87.58,3.53,3.53,0,0,0,.72-.08,3.35,3.35,0,0,0,2.18-1.55L76.82,42a.81.81,0,0,0,.16-.32l6.58-11,2-3.36h0a4.27,4.27,0,0,1,1.79,3.5Zm-.8-61.57a1.47,1.47,0,0,1,.85.3l3.77,2.6a1.4,1.4,0,0,1,.6.91,1.43,1.43,0,0,1-.26,1.1l-.05.05,0,0c0,.1-4.91,9.41-6.7,12.54-2,3.44-8,13.32-9.09,15.09L64.34,31.93c1.16-1.42,6.87-8.42,9.14-11C76.2,17.79,85.29,8,85.41,7.87a1.5,1.5,0,0,1,1-.68Zm-19.29,36h0a18.43,18.43,0,0,0-.94,5.59,9,9,0,0,1-1.63,5.41c-.95,1.36-2.54,1.93-4.63,2.37l-.76.16a38.93,38.93,0,0,0-4.64,1.17h0v0a44.49,44.49,0,0,0-.55-5l-.07-.44c-.33-2.18-.35-3.8.58-5.14a9.18,9.18,0,0,1,4.52-3.43A18.57,18.57,0,0,0,64.08,41h0l.44.32Zm6.17.3a1.24,1.24,0,0,1-.73.53.75.75,0,0,1-.21,0,1.31,1.31,0,0,1-.74-.25l-9.68-6.7a4.16,4.16,0,0,1-.59-1.16.68.68,0,0,1,.2-.75L63,33.55l11.59,8ZM38.54,87l1.64-5.66H55.54L57.22,87ZM34.78,46.17A6.21,6.21,0,1,0,28.57,40,6.22,6.22,0,0,0,34.78,46.17Zm0-10.6A4.39,4.39,0,1,1,30.39,40,4.4,4.4,0,0,1,34.78,35.57ZM52.3,60.79a.91.91,0,0,1-.91.91h-34a.92.92,0,0,1-.85-.58.91.91,0,0,1,.24-1L28.53,49.4a.89.89,0,0,1,.62-.24.92.92,0,0,1,.55.19L36,54.23,51.33,39.44a.91.91,0,1,1,1.26,1.31L36.72,56.09a.91.91,0,0,1-1.18.06l-6.35-4.89-9.47,8.62H51.39A.91.91,0,0,1,52.3,60.79Z" fill="#161616"/></svg>