<svg xmlns="http://www.w3.org/2000/svg" width="190" height="80.009" viewBox="0 0 190 80.009"><path d="M90.584,61.619A12.43,12.43,0,0,0,86.956,61c-3.336-.028-6.671-.048-10.007-.037-.36,0-.972-.291-1.036.411-.068.753.578.474.938.523,1.645.224,2.373.774,2.475,2.227a85.107,85.107,0,0,1,0,11.728c-.095,1.387-.773,1.965-2.131,2.186a6.446,6.446,0,0,1-5.286-1.753,40.677,40.677,0,0,1-3.871-3.965c-.847-.916-.841-.922.354-1.316,2.69-.888,4.157-2.853,3.943-5.285a5.116,5.116,0,0,0-4.562-4.443c-3.916-.68-7.886-.181-11.83-.3-.344-.01-.543.112-.527.5.019.44.339.379.618.423,2.379.38,2.835.839,2.87,3.221.048,3.224.03,6.449.009,9.673-.015,2.33-.74,3.324-2.882,3.342-.352,0-.65.063-.614.54.034.444.355.392.631.392q4.786.008,9.573,0c.281,0,.594.031.611-.412.015-.395-.2-.5-.531-.512a4.3,4.3,0,0,1-.433-.042c-1.815-.25-2.378-.831-2.508-2.656-.067-.939-.109-1.882-.105-2.822,0-.391-.235-.933.337-1.134.553-.194.851.222,1.152.6,1.669,2.1,3.365,4.176,5.007,6.3a1.62,1.62,0,0,0,1.463.688c2.756-.03,5.512-.013,8.268-.013v-.023c2.611,0,5.221.01,7.832,0a13.086,13.086,0,0,0,3.951-.669,8.445,8.445,0,0,0,6.191-8.471,8.317,8.317,0,0,0-6.271-8.276m-27.891,6.16V66.148c0-.87.061-1.745-.016-2.607-.081-.9.293-1.158,1.113-1.052a8.219,8.219,0,0,0,.978.007,3.626,3.626,0,0,1,3.56,5.136,3.381,3.381,0,0,1-3.384,2.239c-2.252.138-2.251.146-2.251-2.093m29.291,5.962a6.5,6.5,0,0,1-7.764,3.579c-.845-.292-.985-1.007-.992-1.752-.02-2.027-.007-4.054-.007-6.082h-.03c0-2.064.018-4.128-.011-6.191-.009-.6.168-.844.8-.809.9.049,1.813-.016,2.716.038a5.7,5.7,0,0,1,5.6,4.6,10.859,10.859,0,0,1-.3,6.62m64.123.344c-.587-.136-.575.437-.654.791a2.82,2.82,0,0,1-2.67,2.438,20.2,20.2,0,0,1-4.125.088c-1.553-.169-2.179-.771-2.307-2.346-.079-.974-.12-1.955-.1-2.932.032-2.025-.412-1.835,1.857-1.768,2.08.061,2.612.549,2.826,2.369.037.316-.158.8.438.809.652.007.5-.514.5-.87q.023-3.152,0-6.3c0-.363.143-.879-.5-.876-.587,0-.4.486-.442.808-.2,1.711-.685,2.192-2.406,2.325-.506.039-1.017.009-1.522.052-.566.049-.775-.175-.767-.74.022-1.558.029-3.116,0-4.674-.013-.641.258-.8.844-.779,1.123.039,2.249-.01,3.372.032,2.94.111,3.616.865,4,2.916.056.3.146.578.54.545.56-.047.336-.466.32-.742-.065-1.157-.2-2.311-.227-3.469-.014-.683-.292-.849-.918-.847-4.75.016-9.5,0-14.251.018-.343,0-.873-.2-.909.45-.038.683.509.461.852.5,1.752.206,2.491.774,2.574,2.365a105.958,105.958,0,0,1,0,11.408c-.1,1.816-1.233,2.611-3.056,2.345a5.54,5.54,0,0,1-1.65-.51c-2.777-1.384-4.446-3.94-6.68-6.157a8.361,8.361,0,0,0,3.371-1.435,4.624,4.624,0,0,0,.818-6.655,6.4,6.4,0,0,0-4.588-2.192c-3.509-.286-7.031-.087-10.548-.119-.309,0-.689-.057-.726.432-.044.582.389.481.735.524,1.995.244,2.48.727,2.718,2.711a7.388,7.388,0,0,1,.051.867c0,3.007.027,6.015-.005,9.022-.028,2.651-.369,3.038-2.96,3.608-.313.069-.551.124-.547.518,0,.435.294.429.592.437l.109,0q4.678,0,9.356,0c.309,0,.693.087.712-.425.018-.47-.312-.5-.651-.532-.18-.016-.361-.036-.541-.059a2.166,2.166,0,0,1-2.205-2.109,16.4,16.4,0,0,1-.159-3.359c.014-.377-.276-.925.363-1.1.565-.154.847.251,1.147.628,1.6,2.014,3.248,3.993,4.8,6.045a2.151,2.151,0,0,0,2,.933c2.319-.058,4.641-.02,6.962-.02,4.424,0,8.848-.02,13.272.019.8.007,1.077-.2,1.064-1.019-.017-1.01.136-2.023.167-3.036.01-.317.259-.815-.238-.93m-29.554-6.439c0-1.3.061-2.608-.02-3.906-.061-.98.227-1.422,1.244-1.248a3.265,3.265,0,0,0,.542,0c3.181.005,4.853,2.126,3.94,5-.471,1.484-1.468,2.2-3.275,2.363-2.432.215-2.432.215-2.432-2.214M30.54,60.756c-2,6.042-4.035,12.073-6.056,18.108-.08.24-.166.479-.237.721a.507.507,0,0,1-.436.419c-.346.044-.426-.228-.506-.461-.258-.753-.5-1.511-.744-2.267q-2.157-6.6-4.315-13.2c-.1-.306-.21-.609-.424-1.228-1.12,3.364-2.134,6.411-3.149,9.458q-1.148,3.447-2.3,6.892c-.108.322-.1.8-.586.8s-.479-.463-.587-.792q-3.015-9.23-6.029-18.459c-.146-.446-.329-.88-.493-1.321A4.034,4.034,0,0,0,.8,56.482c-.388-.012-.856.037-.792-.6.055-.548.478-.451.823-.451q5.221-.008,10.442,0c.329,0,.758-.136.8.45.047.64-.4.553-.787.6a10.813,10.813,0,0,0-1.076.156,1.726,1.726,0,0,0-1.525,2.208,19.758,19.758,0,0,0,.676,2.51c.976,3.029,1.974,6.05,2.969,9.073.134.406.3.8.541,1.43.883-2.61,1.693-5,2.5-7.393q1.388-4.111,2.774-8.223c.124-.367.153-.785.709-.817.631-.036.672.444.8.835q2.394,7.206,4.775,14.416c.1.306.216.608.326.917.312-.121.344-.381.422-.611q1.738-5.139,3.476-10.277c.116-.343.223-.689.317-1.038.57-2.111.056-2.876-2.116-3.155-.18-.023-.361-.04-.542-.045-.344-.01-.531-.142-.524-.524s.186-.511.537-.511q4.568,0,9.136,0c.348,0,.53.115.533.5s-.143.539-.506.528c-2.977-.093-4.147,1.86-4.953,4.3M94.915,49.21a24.6,24.6,0,1,0-24.5-24.72,24.592,24.592,0,0,0,24.5,24.72m.076-47.8a23.208,23.208,0,1,1-23.246,23.23A23.294,23.294,0,0,1,94.991,1.4m19.981,55.458a8.81,8.81,0,0,0-3.994-1.285c-4.017-.316-8.042-.079-12.062-.139-.389-.006-.961-.2-.974.51s.587.493.962.538c2.187.267,2.868.82,3.175,3a67.665,67.665,0,0,1,.174,7.7c0,.435.01.87,0,1.3A44.069,44.069,0,0,1,102,75.429,2.742,2.742,0,0,1,99.036,78c-.181.011-.362.02-.543.021-.342,0-.543.145-.56.511-.021.46.261.536.63.525.254-.008.507,0,.761,0q5.164,0,10.329-.006c.331,0,.754.121.764-.479.01-.553-.343-.546-.716-.557-.109,0-.217-.006-.326-.012-1.946-.117-2.782-.9-3.095-2.825a22.742,22.742,0,0,1-.2-3.574c-.01-2.733-.01-2.75,2.683-2.733A11.334,11.334,0,0,0,114.93,67.5a6.178,6.178,0,0,0,.041-10.64m-1.236,5.891a4.151,4.151,0,0,1-4.044,4.154c-1.151.053-2.61.482-3.373-.151-.74-.614-.171-2.108-.24-3.213-.031-.5-.005-1.013-.005-1.519,0-1.3.025-2.6-.01-3.906-.017-.616.2-.841.813-.808a22.423,22.423,0,0,1,3.463.154c2.328.489,3.583,2.429,3.4,5.289M50.352,62.41a11.869,11.869,0,0,0-13.906.129,9.107,9.107,0,0,0-.133,14.807,11.272,11.272,0,0,0,7.163,2.421A11.564,11.564,0,0,0,49.2,78.322c6.385-3.543,6.973-11.669,1.152-15.912M49.28,74.657a6.011,6.011,0,0,1-5.713,3.465,6.1,6.1,0,0,1-5.785-3.355,10.679,10.679,0,0,1-.171-9.221,6.121,6.121,0,0,1,5.889-3.7,6.046,6.046,0,0,1,5.884,3.7,10.127,10.127,0,0,1-.1,9.111m140.532.759c-.691,2.611-3.429,4.423-6.557,4.353a6.922,6.922,0,0,1-4.069-1.321c-.809-.6-1.112-.3-1.384.442-.062.169-.128.338-.193.506a.562.562,0,0,1-.7.35c-.346-.058-.332-.342-.334-.59-.007-1.05,0-2.1,0-3.151h-.006c0-.905-.024-1.812.012-2.716.014-.341-.233-.849.391-.954.643-.108.641.357.748.795a5.976,5.976,0,0,0,6.48,4.888,2.856,2.856,0,0,0,2.685-1.854,2.682,2.682,0,0,0-1.155-3.03,22.744,22.744,0,0,0-4.389-2.356,11.791,11.791,0,0,1-2.961-1.791,4.814,4.814,0,0,1-1.616-5.094,4.969,4.969,0,0,1,4.208-3.481,6.648,6.648,0,0,1,5.022.848c.668.434.959.266,1.175-.395.126-.384.242-.777.794-.673.631.119.368.618.375.949q.045,2.227,0,4.454c-.008.359.285.923-.459,1-.644.063-.668-.412-.773-.824a4.624,4.624,0,0,0-3.677-3.829,3.757,3.757,0,0,0-2.824.471,2.041,2.041,0,0,0-.43,3.257,6.076,6.076,0,0,0,1.873,1.278c1.363.672,2.73,1.337,4.089,2.017,3.113,1.56,4.384,3.8,3.681,6.454m-16.481-.422a6.113,6.113,0,0,1-5.344,4.7,7.249,7.249,0,0,1-5.369-1.249c-.842-.616-1.1-.238-1.4.455-.159.368-.154.954-.784.85-.724-.12-.426-.737-.448-1.146-.046-.867-.014-1.738-.014-2.607,0-.942-.014-1.883.009-2.825.008-.324-.14-.765.425-.837s.633.286.729.711a5.913,5.913,0,0,0,4.567,4.842,4.881,4.881,0,0,0,3-.1,2.478,2.478,0,0,0,.99-4.145,6.993,6.993,0,0,0-2.2-1.559c-1.4-.686-2.832-1.3-4.192-2.05-1.906-1.052-3.252-2.547-3.277-4.88a4.972,4.972,0,0,1,4.409-4.751,6.844,6.844,0,0,1,5.02.877c.707.465.953.179,1.163-.434.135-.393.279-.742.818-.65.59.1.355.555.36.856.026,1.557.022,3.115,0,4.672,0,.346.2.837-.474.879-.556.034-.654-.32-.751-.726-.481-2.017-1.539-3.5-3.7-3.933a3.874,3.874,0,0,0-2.541.314,2.087,2.087,0,0,0-.558,3.574,8.906,8.906,0,0,0,2.3,1.421c1.3.643,2.612,1.25,3.9,1.911,2.61,1.342,3.785,3.4,3.364,5.836M78.174,13.272C82.992,4.374,98.2.037,108.509,9.265c-.184.287-.5.165-.745.234a3.845,3.845,0,0,0-2.464,4.888,8.305,8.305,0,0,0,1.221,2.534,11.611,11.611,0,0,1,1.565,10.938c-.955,2.878-1.793,5.794-2.683,8.693l-.263-.034q-1.809-5.39-3.619-10.779-1.592-4.732-3.193-9.46c-.433-1.286-.43-1.281.888-1.367a7.2,7.2,0,0,0,1.074-.149.785.785,0,0,0,.648-.97.752.752,0,0,0-.816-.706c-.289-.006-.58.009-.869.031a63.645,63.645,0,0,1-9.453-.01c-.651-.047-1.427-.187-1.526.746s.711,1.074,1.336,1.012c1.333-.131,1.787.556,2.15,1.694.691,2.169,1.544,4.287,2.318,6.43a1.6,1.6,0,0,1,.145,1.146C92.8,28.345,91.4,32.565,89.981,36.8c-.351-.186-.345-.511-.437-.782-2.23-6.615-4.447-13.234-6.7-19.84-.3-.884-.328-1.323.821-1.29.724.021,1.855.2,1.816-.981-.041-1.27-1.155-.764-1.87-.773-1.806-.023-3.606.3-5.436.135m23.281,29.883c.2.549.28.868-.447,1.075a20.832,20.832,0,0,1-10.933.265c-.565-.141-.815-.276-.585-.934,1.918-5.49,3.8-10.99,5.7-16.486a3.166,3.166,0,0,1,.216-.378c.425,1.151.811,2.192,1.193,3.235q2.424,6.613,4.854,13.223m-25.2-26.709,9.671,26.467a20.379,20.379,0,0,1-9.671-26.467m30.182,22.871q2.827-8.14,5.658-16.279a18.13,18.13,0,0,0,1.052-7.725c4.615,8.035,2.562,20.872-7.673,26.83.351-1.032.652-1.931.963-2.826" transform="translate(0 -0.001)" fill="#fff"/></svg>